<svg xmlns="http://www.w3.org/2000/svg" viewBox="0 0 257.28 61.17"><defs><style>.cls-1{fill:#727171;}</style></defs><title>Kumho Petrochemical wordmark (2006)</title><g id="레이어_2" data-name="레이어 2"><g id="Layer_1" data-name="Layer 1"><path class="cls-1" d="M13.55,24.57,4.67,11.81,13.51.48h5.32l-9,11.15,9.62,12.94ZM0,.48H4.65V24.57H0Z"/><path class="cls-1" d="M39.29,19.45c-1.27,4-5.13,5.61-9.08,5.61s-7.59-1.51-8.95-5.36a13.52,13.52,0,0,1-.58-4.51V.48h4.64V14.3c0,1.47-.07,3.34.69,4.67A4.59,4.59,0,0,0,30.24,21a4.69,4.69,0,0,0,4.12-1.92c.8-1.33.76-3.06.76-4.57V.48h4.64V15.53a12.89,12.89,0,0,1-.47,3.92"/><polygon class="cls-1" points="62.8 24.57 62.8 5.77 57.65 24.57 52.87 24.57 47.79 5.77 47.79 24.57 43.62 24.57 43.62 0.48 50.06 0.48 55.28 19.63 60.58 0.48 66.97 0.48 66.97 24.57 62.8 24.57"/><polygon class="cls-1" points="85.3 24.57 85.3 13.92 75.74 13.92 75.74 24.57 71.1 24.57 71.1 0.48 75.74 0.48 75.74 10.1 85.3 10.1 85.3 0.48 89.94 0.48 89.94 24.57 85.3 24.57"/><path class="cls-1" d="M103.89,4c-4.68,0-6,4.71-6,8.57s1.36,8.56,6.07,8.56S110,16.38,110,12.53,108.55,4,103.89,4m5.46,19.65a10.54,10.54,0,0,1-5.46,1.45,11.22,11.22,0,0,1-4.81-1.14c-4.44-2.28-6-6.65-6-11.39S94.51,3.68,98.7,1.3A10.64,10.64,0,0,1,103.92,0a10.45,10.45,0,0,1,7.59,3.08c2.41,2.48,3.3,6.07,3.3,9.45,0,4.5-1.44,8.66-5.46,11.08"/><path class="cls-1" d="M6.62,40.54h-2v7.18H6.43c2.65,0,5.82,0,5.82-3.51s-2.9-3.67-5.63-3.67m5.47,10.7c-2.12.62-5.16.45-7.38.45v9H0V36.59H6.49c3.71,0,7.8.14,9.65,3.93a8.48,8.48,0,0,1,.82,3.8c0,3.26-1.61,6-4.87,6.92"/><polygon class="cls-1" points="19.39 60.69 19.39 36.59 34.59 36.59 34.59 40.54 24.04 40.54 24.04 46.23 33.63 46.23 33.63 50.18 24.04 50.18 24.04 56.73 34.96 56.73 34.96 60.69 19.39 60.69"/><polygon class="cls-1" points="47.4 40.54 47.4 60.69 42.76 60.69 42.76 40.54 36.42 40.54 36.42 36.59 53.79 36.59 53.79 40.54 47.4 40.54"/><path class="cls-1" d="M65.92,41a9,9,0,0,0-3.58-.46H60.12v7h3c2.47,0,4.61-.68,4.61-3.57A3,3,0,0,0,65.92,41m2.46,19.69-4.92-9.21H60.12v9.21H55.48V36.59H62a16.81,16.81,0,0,1,5.83.61A6.87,6.87,0,0,1,72.5,44a6.93,6.93,0,0,1-4.25,6.67l5.53,10Z"/><path class="cls-1" d="M85.34,40.07c-4.67,0-6,4.71-6,8.58s1.36,8.57,6.07,8.57,6.07-4.72,6.07-8.57S90,40.07,85.34,40.07m5.47,19.67a10.68,10.68,0,0,1-5.47,1.43A11.24,11.24,0,0,1,80.53,60c-4.43-2.28-6-6.66-6-11.39S76,39.8,80.15,37.41a10.7,10.7,0,0,1,5.23-1.3A10.45,10.45,0,0,1,93,39.19c2.43,2.49,3.32,6.08,3.32,9.46,0,4.5-1.44,8.67-5.46,11.09"/><path class="cls-1" d="M115.69,58.1A8.11,8.11,0,0,1,109,61.17a10.22,10.22,0,0,1-8-3.59c-2.16-2.52-2.8-5.59-2.8-8.8a17.54,17.54,0,0,1,.61-5,10.19,10.19,0,0,1,10-7.72c5.22,0,8.19,3.21,8.45,8.3h-4c-.42-2.5-1.81-4.3-4.51-4.3-4.61,0-5.79,5-5.79,8.71s1.42,8.33,5.89,8.33c3.18,0,4.41-2.6,4.55-5.4h4.15a10.94,10.94,0,0,1-1.83,6.35"/><polygon class="cls-1" points="134.87 60.69 134.87 50.03 125.32 50.03 125.32 60.69 120.67 60.69 120.67 36.59 125.32 36.59 125.32 46.23 134.87 46.23 134.87 36.59 139.5 36.59 139.5 60.69 134.87 60.69"/><polygon class="cls-1" points="143.76 60.69 143.76 36.59 158.94 36.59 158.94 40.54 148.41 40.54 148.41 46.23 157.99 46.23 157.99 50.18 148.41 50.18 148.41 56.73 159.32 56.73 159.32 60.69 143.76 60.69"/><polygon class="cls-1" points="181.61 60.69 181.61 41.88 176.46 60.69 171.68 60.69 166.59 41.88 166.59 60.69 162.43 60.69 162.43 36.59 168.89 36.59 174.1 55.74 179.39 36.59 185.77 36.59 185.77 60.69 181.61 60.69"/><rect class="cls-1" x="190.22" y="36.59" width="4.65" height="24.1"/><path class="cls-1" d="M216.2,58.1a8.08,8.08,0,0,1-6.72,3.07,10.23,10.23,0,0,1-8.06-3.59,13,13,0,0,1-2.8-8.8,17.2,17.2,0,0,1,.62-5,10.18,10.18,0,0,1,10-7.72c5.22,0,8.19,3.21,8.46,8.3h-4c-.41-2.5-1.82-4.3-4.52-4.3-4.6,0-5.8,5-5.8,8.71s1.44,8.33,5.91,8.33c3.18,0,4.41-2.6,4.54-5.4H218a11,11,0,0,1-1.84,6.35"/><path class="cls-1" d="M229.07,41.88,226,51.71h6.18Zm5.77,18.81-1.5-5h-8.5l-1.5,5h-4.79l8.16-24.1h4.72l8.18,24.1Z"/><polygon class="cls-1" points="242.08 60.69 242.08 36.59 246.82 36.59 246.82 56.73 257.28 56.73 257.28 60.69 242.08 60.69"/></g></g></svg>