<?xml version="1.0" encoding="utf-8"?>
<!-- Generator: Adobe Illustrator 26.3.1, SVG Export Plug-In . SVG Version: 6.00 Build 0)  -->
<svg version="1.1" id="Layer_1" xmlns="http://www.w3.org/2000/svg" xmlns:xlink="http://www.w3.org/1999/xlink" x="0px" y="0px"
	 viewBox="0 0 180 80" style="enable-background:new 0 0 180 80;" xml:space="preserve">
<style type="text/css">
	.st0{fill-rule:evenodd;clip-rule:evenodd;fill:#1C3660;}
	.st1{fill-rule:evenodd;clip-rule:evenodd;fill:#F59A00;}
	.st2{fill:#FFFFFF;}
</style>
<g>
	<path class="st0" d="M165,48.4c0,7.2-5.9,13-13,13H28c-7.1,0-13-5.8-13-13V31.6c0-7.1,5.9-13,13-13h124c7.1,0,13,5.9,13,13V48.4z"
		/>
</g>
<g>
	<g>
		<g>
			<path class="st1" d="M29.3,29.3L29.3,29.3c1.2-0.4,2.5-0.4,3.6,0.1c1.1,0.5,1.9,1.4,2.4,2.5c0.7,1.9,0.2,3.9-1.2,5.5l-0.6,0.7
				l1.4,3.8c0.9-1,1.8-2,2.5-3.1c1.4-1.8,2-3.8,2-5.6c0-0.9-0.2-1.7-0.5-2.6c-0.8-2.1-2.3-3.7-4.3-4.7c-2-0.9-4.3-1-6.4-0.3l-0.1,0
				c-4.3,1.6-6.6,6.3-5,10.5c0.4,1.2,1.1,2.2,2,3.1l2.7-2.7c-0.5-0.5-0.9-1-1.1-1.7C25.7,32.8,26.9,30.2,29.3,29.3z"/>
			<path class="st1" d="M44.1,44.3c-0.4-1.2-1.1-2.2-2-3.1c0,0-0.1-0.1-0.1-0.1l-2.5,2.8c0,0,0.8,1,1,1.6c0.8,2.3-0.4,4.9-2.7,5.7
				l0,0c-1.2,0.4-2.4,0.3-3.5-0.2c-1.1-0.5-2-1.4-2.4-2.5c-0.6-1.6-0.2-3.3,0.9-4.5l1.3-1.2l-1.5-4l-2.9,3.1
				c-1.8,2.3-2.4,5.2-1.4,7.9c0.8,2.1,2.3,3.7,4.3,4.7c2,0.9,4.3,1,6.4,0.3l0.1,0C43.4,53.2,45.6,48.5,44.1,44.3z"/>
		</g>
	</g>
	<g>
		<polygon class="st2" points="57.3,47.9 57.3,30.8 53.9,30.8 53.9,50.9 56.2,50.9 57.3,50.9 66.7,50.9 66.7,47.9 		"/>
		<path class="st2" d="M75.2,51.2c-1.3,0-2.6-0.3-3.6-1c-1.1-0.6-2-1.5-2.6-2.6c-0.6-1.1-1-2.3-1-3.6c0-1.3,0.3-2.5,1-3.6
			s1.5-1.9,2.6-2.6c1.1-0.6,2.3-1,3.6-1c1.4,0,2.6,0.3,3.7,0.9c1.1,0.6,2,1.5,2.6,2.6c0.6,1.1,1,2.3,1,3.6c0,1.3-0.3,2.6-1,3.6
			c-0.6,1.1-1.5,2-2.6,2.6C77.8,50.9,76.5,51.2,75.2,51.2z M75.2,48.2c0.8,0,1.5-0.2,2.1-0.5s1.1-0.8,1.4-1.5
			c0.3-0.6,0.5-1.4,0.5-2.2s-0.2-1.5-0.5-2.1s-0.8-1.1-1.4-1.5s-1.3-0.5-2.1-0.5c-0.8,0-1.5,0.2-2.1,0.5c-0.6,0.4-1.1,0.8-1.4,1.5
			c-0.3,0.6-0.5,1.3-0.5,2.1s0.2,1.5,0.5,2.2c0.3,0.6,0.8,1.1,1.4,1.5C73.7,48,74.4,48.2,75.2,48.2z"/>
		<path class="st2" d="M91.4,51.2c-1.4,0-2.6-0.3-3.7-0.9c-1.1-0.6-2-1.5-2.6-2.6c-0.6-1.1-0.9-2.3-0.9-3.6c0-1.4,0.3-2.6,0.9-3.7
			c0.6-1.1,1.5-1.9,2.6-2.6c1.1-0.6,2.3-0.9,3.7-0.9c1.1,0,2.1,0.2,3,0.6c0.9,0.4,1.7,1,2.4,1.8l-2.1,2.1c-0.4-0.5-0.9-0.8-1.5-1.1
			c-0.6-0.2-1.2-0.4-1.9-0.4c-0.8,0-1.5,0.2-2.1,0.5c-0.6,0.4-1.1,0.8-1.4,1.5c-0.3,0.6-0.5,1.3-0.5,2.2c0,0.8,0.2,1.5,0.5,2.1
			c0.3,0.6,0.8,1.1,1.4,1.5c0.6,0.4,1.3,0.5,2.1,0.5c0.7,0,1.3-0.1,1.9-0.4c0.6-0.2,1-0.6,1.5-1.1l2.1,2.1c-0.7,0.8-1.4,1.4-2.4,1.8
			C93.5,51,92.5,51.2,91.4,51.2z"/>
		<path class="st2" d="M108.7,37.2v1.5c-0.4-0.5-0.9-0.9-1.4-1.2c-0.8-0.5-1.7-0.7-2.8-0.7c-1.2,0-2.4,0.3-3.4,1
			c-1,0.6-1.8,1.5-2.4,2.6c-0.6,1.1-0.9,2.3-0.9,3.7c0,1.3,0.3,2.6,0.9,3.6c0.6,1.1,1.4,1.9,2.4,2.6c1,0.6,2.1,0.9,3.4,0.9
			c1.1,0,2-0.2,2.8-0.7c0.6-0.3,1-0.7,1.4-1.1v1.5h3.2V37.2H108.7z M107.9,47.1c-0.7,0.8-1.7,1.2-2.8,1.2c-0.8,0-1.4-0.2-2-0.5
			c-0.6-0.4-1-0.8-1.4-1.5c-0.3-0.6-0.5-1.4-0.5-2.2s0.2-1.6,0.5-2.2c0.3-0.6,0.8-1.1,1.4-1.5c0.6-0.4,1.3-0.5,2-0.5
			c0.8,0,1.5,0.2,2.1,0.5c0.6,0.4,1,0.8,1.4,1.5c0.3,0.6,0.5,1.4,0.5,2.2C108.9,45.3,108.6,46.3,107.9,47.1z"/>
		<path class="st2" d="M128.6,40.4c-0.6-1.1-1.4-1.9-2.4-2.6c-1-0.6-2.1-1-3.4-1c-1,0-2,0.2-2.8,0.7c-0.6,0.3-1,0.7-1.4,1.2v-1.5
			h-3.2v19.5h3.2v-7.3c0.4,0.5,0.9,0.8,1.4,1.1c0.8,0.4,1.8,0.7,2.8,0.7c1.2,0,2.4-0.3,3.4-0.9c1-0.6,1.8-1.5,2.4-2.6
			c0.6-1.1,0.9-2.3,0.9-3.6C129.4,42.7,129.1,41.5,128.6,40.4z M125.7,46.2c-0.3,0.6-0.8,1.1-1.4,1.5s-1.3,0.5-2,0.5
			c-0.8,0-1.4-0.2-2-0.5c-0.6-0.4-1.1-0.8-1.4-1.5c-0.3-0.6-0.5-1.4-0.5-2.2s0.2-1.6,0.5-2.2c0.3-0.6,0.8-1.1,1.4-1.5
			c0.6-0.4,1.3-0.5,2-0.5c0.8,0,1.4,0.2,2,0.5s1,0.8,1.4,1.5c0.3,0.6,0.5,1.4,0.5,2.2S126,45.6,125.7,46.2z"/>
		<path class="st2" d="M138.4,51.2c-1.3,0-2.6-0.3-3.6-1c-1.1-0.6-2-1.5-2.6-2.6c-0.6-1.1-1-2.3-1-3.6c0-1.3,0.3-2.5,1-3.6
			c0.6-1.1,1.5-1.9,2.6-2.6c1.1-0.6,2.3-1,3.6-1c1.4,0,2.6,0.3,3.7,0.9c1.1,0.6,2,1.5,2.6,2.6c0.6,1.1,1,2.3,1,3.6
			c0,1.3-0.3,2.6-1,3.6c-0.6,1.1-1.5,2-2.6,2.6C141,50.9,139.8,51.2,138.4,51.2z M138.4,48.2c0.8,0,1.5-0.2,2.1-0.5s1.1-0.8,1.4-1.5
			c0.3-0.6,0.5-1.4,0.5-2.2s-0.2-1.5-0.5-2.1s-0.8-1.1-1.4-1.5s-1.3-0.5-2.1-0.5c-0.8,0-1.5,0.2-2.1,0.5s-1.1,0.8-1.4,1.5
			c-0.3,0.6-0.5,1.3-0.5,2.1s0.2,1.5,0.5,2.2c0.3,0.6,0.8,1.1,1.4,1.5S137.6,48.2,138.4,48.2z"/>
		<path class="st2" d="M148.3,50.9V30.3h3.2v20.7H148.3z"/>
	</g>
</g>
</svg>
