<svg width="172" height="36" viewBox="0 0 172 36" fill="none" xmlns="http://www.w3.org/2000/svg">
<path d="M31.3979 29V8.88424H34.7026V29H31.3979ZM33.6681 29V25.9826H44.1857V29H33.6681ZM52.6115 29.2874C51.2704 29.2874 50.0539 28.9713 48.9619 28.3391C47.8699 27.6877 46.9982 26.816 46.3468 25.724C45.7146 24.632 45.3985 23.4155 45.3985 22.0744C45.3985 20.7334 45.7146 19.5264 46.3468 18.4536C46.9982 17.3808 47.8699 16.5282 48.9619 15.896C50.0539 15.2447 51.2704 14.919 52.6115 14.919C53.9717 14.919 55.1978 15.2351 56.2898 15.8673C57.3818 16.4995 58.2439 17.3616 58.8761 18.4536C59.5274 19.5264 59.8531 20.7334 59.8531 22.0744C59.8531 23.4155 59.5274 24.632 58.8761 25.724C58.2439 26.816 57.3818 27.6877 56.2898 28.3391C55.1978 28.9713 53.9717 29.2874 52.6115 29.2874ZM52.6115 26.2413C53.3969 26.2413 54.0866 26.0688 54.6805 25.724C55.2936 25.36 55.7629 24.8619 56.0886 24.2297C56.4335 23.5975 56.6059 22.8791 56.6059 22.0744C56.6059 21.2698 56.4335 20.561 56.0886 19.9479C55.7438 19.3349 55.2744 18.8559 54.6805 18.5111C54.0866 18.1471 53.3969 17.9651 52.6115 17.9651C51.8451 17.9651 51.1555 18.1471 50.5424 18.5111C49.9485 18.8559 49.4791 19.3349 49.1343 19.9479C48.8086 20.561 48.6458 21.2698 48.6458 22.0744C48.6458 22.8791 48.8086 23.5975 49.1343 24.2297C49.4791 24.8619 49.9485 25.36 50.5424 25.724C51.1555 26.0688 51.8451 26.2413 52.6115 26.2413ZM68.8327 29.2874C67.4725 29.2874 66.2368 28.9713 65.1257 28.3391C64.0337 27.7068 63.1716 26.8447 62.5393 25.7527C61.9071 24.6607 61.591 23.4442 61.591 22.1032C61.591 20.743 61.9071 19.5264 62.5393 18.4536C63.1716 17.3616 64.0337 16.4995 65.1257 15.8673C66.2368 15.2351 67.4725 14.919 68.8327 14.919C69.9055 14.919 70.9018 15.1297 71.8213 15.5512C72.7601 15.9535 73.5551 16.5378 74.2065 17.3041L72.1374 19.4019C71.7351 18.923 71.2466 18.5685 70.6719 18.3386C70.1163 18.0896 69.5032 17.9651 68.8327 17.9651C68.0472 17.9651 67.348 18.1471 66.7349 18.5111C66.141 18.8559 65.6717 19.3349 65.3268 19.9479C65.0011 20.561 64.8383 21.2794 64.8383 22.1032C64.8383 22.9078 65.0011 23.6262 65.3268 24.2584C65.6717 24.8715 66.141 25.36 66.7349 25.724C67.348 26.0688 68.0472 26.2413 68.8327 26.2413C69.5032 26.2413 70.1163 26.1263 70.6719 25.8964C71.2466 25.6474 71.7351 25.2834 72.1374 24.8044L74.2065 26.9022C73.5551 27.6685 72.7601 28.2624 71.8213 28.6839C70.9018 29.0862 69.9055 29.2874 68.8327 29.2874ZM81.9809 29.2874C80.7357 29.2874 79.6053 28.9713 78.59 28.3391C77.5938 27.7068 76.7987 26.8543 76.2048 25.7815C75.6301 24.6895 75.3427 23.473 75.3427 22.1319C75.3427 20.7717 75.6301 19.5552 76.2048 18.4823C76.7987 17.3903 77.5938 16.5282 78.59 15.896C79.6053 15.2447 80.7357 14.919 81.9809 14.919C83.0346 14.919 83.9638 15.1489 84.7684 15.6087C85.5922 16.0493 86.2435 16.6623 86.7225 17.4478C87.2014 18.2333 87.4409 19.1241 87.4409 20.1203V24.086C87.4409 25.0822 87.2014 25.9731 86.7225 26.7585C86.2627 27.544 85.6209 28.1666 84.7971 28.6264C83.9733 29.0671 83.0346 29.2874 81.9809 29.2874ZM82.4982 26.2987C83.6668 26.2987 84.6055 25.906 85.3144 25.1205C86.0424 24.3351 86.4064 23.3293 86.4064 22.1032C86.4064 21.2794 86.2435 20.5514 85.9179 19.9192C85.5922 19.287 85.1324 18.7984 84.5385 18.4536C83.9638 18.0896 83.2837 17.9076 82.4982 17.9076C81.7319 17.9076 81.0518 18.0896 80.4579 18.4536C79.8831 18.7984 79.4233 19.287 79.0785 19.9192C78.7528 20.5514 78.59 21.2794 78.59 22.1032C78.59 22.927 78.7528 23.655 79.0785 24.2872C79.4233 24.9194 79.8831 25.4175 80.4579 25.7815C81.0518 26.1263 81.7319 26.2987 82.4982 26.2987ZM86.2052 29V25.293L86.7512 21.9307L86.2052 18.5973V15.2063H89.3663V29H86.2052ZM102.386 29.2874C101.007 29.2874 99.7042 29.0192 98.4781 28.4827C97.252 27.9463 96.1791 27.2087 95.2596 26.27C94.34 25.3121 93.612 24.2105 93.0756 22.9653C92.5583 21.7009 92.2997 20.3502 92.2997 18.9134C92.2997 17.4765 92.5583 16.1355 93.0756 14.8902C93.612 13.645 94.34 12.553 95.2596 11.6142C96.1983 10.6563 97.2903 9.91876 98.5356 9.4015C99.8 8.86508 101.16 8.59687 102.616 8.59687C104.206 8.59687 105.681 8.9034 107.042 9.51645C108.402 10.1295 109.542 11.0012 110.461 12.1315L108.22 14.373C107.626 13.53 106.831 12.8882 105.835 12.4476C104.838 11.9878 103.766 11.7579 102.616 11.7579C101.237 11.7579 100.02 12.0644 98.9666 12.6775C97.9321 13.2714 97.1275 14.1048 96.5527 15.1776C95.978 16.2504 95.6906 17.4957 95.6906 18.9134C95.6906 20.3311 95.978 21.5859 96.5527 22.6779C97.1466 23.7507 97.9417 24.5937 98.9379 25.2067C99.9341 25.8198 101.064 26.1263 102.329 26.1263C103.67 26.1263 104.819 25.8868 105.777 25.4079C106.754 24.9098 107.501 24.1818 108.019 23.2239C108.536 22.2469 108.795 21.0495 108.795 19.6318L110.864 21.1261H102.271V18.1088H112.214V18.5685C112.214 20.9633 111.783 22.9557 110.921 24.5458C110.078 26.1359 108.919 27.3237 107.444 28.1092C105.969 28.8946 104.283 29.2874 102.386 29.2874ZM115.072 29V15.2063H118.234V29H115.072ZM118.234 21.3273L117.142 20.7813C117.142 19.0379 117.525 17.6298 118.291 16.557C119.076 15.465 120.255 14.919 121.826 14.919C122.515 14.919 123.138 15.0435 123.694 15.2925C124.249 15.5416 124.766 15.9439 125.245 16.4995L123.176 18.626C122.927 18.3578 122.649 18.1662 122.343 18.0513C122.036 17.9363 121.682 17.8789 121.28 17.8789C120.398 17.8789 119.67 18.1566 119.096 18.7122C118.521 19.2678 118.234 20.1395 118.234 21.3273ZM132.762 29.2874C131.383 29.2874 130.138 28.9808 129.026 28.3678C127.934 27.7356 127.063 26.8735 126.411 25.7815C125.779 24.6895 125.463 23.4634 125.463 22.1032C125.463 20.743 125.779 19.5264 126.411 18.4536C127.044 17.3616 127.896 16.4995 128.969 15.8673C130.061 15.2351 131.268 14.919 132.59 14.919C133.873 14.919 135.004 15.2159 135.981 15.8098C136.977 16.4037 137.753 17.2179 138.308 18.2524C138.883 19.287 139.171 20.4652 139.171 21.7871C139.171 22.017 139.151 22.2564 139.113 22.5055C139.094 22.7354 139.056 22.994 138.998 23.2814H127.676V20.6951H137.36L136.182 21.7296C136.144 20.8866 135.981 20.1778 135.693 19.6031C135.406 19.0283 134.994 18.5877 134.458 18.2812C133.94 17.9746 133.299 17.8214 132.532 17.8214C131.728 17.8214 131.028 17.9938 130.435 18.3386C129.841 18.6835 129.381 19.172 129.055 19.8042C128.729 20.4173 128.567 21.1549 128.567 22.017C128.567 22.8791 128.739 23.6358 129.084 24.2872C129.429 24.9385 129.917 25.4462 130.549 25.8102C131.182 26.1551 131.91 26.3275 132.733 26.3275C133.442 26.3275 134.094 26.203 134.688 25.9539C135.301 25.7048 135.818 25.3408 136.239 24.8619L138.251 26.9022C137.58 27.6877 136.766 28.2816 135.808 28.6839C134.85 29.0862 133.835 29.2874 132.762 29.2874ZM148.113 29.2874C146.733 29.2874 145.488 28.9808 144.377 28.3678C143.285 27.7356 142.413 26.8735 141.762 25.7815C141.13 24.6895 140.814 23.4634 140.814 22.1032C140.814 20.743 141.13 19.5264 141.762 18.4536C142.394 17.3616 143.247 16.4995 144.32 15.8673C145.412 15.2351 146.619 14.919 147.94 14.919C149.224 14.919 150.354 15.2159 151.331 15.8098C152.328 16.4037 153.103 17.2179 153.659 18.2524C154.234 19.287 154.521 20.4652 154.521 21.7871C154.521 22.017 154.502 22.2564 154.464 22.5055C154.444 22.7354 154.406 22.994 154.349 23.2814H143.026V20.6951H152.711L151.532 21.7296C151.494 20.8866 151.331 20.1778 151.044 19.6031C150.757 19.0283 150.345 18.5877 149.808 18.2812C149.291 17.9746 148.649 17.8214 147.883 17.8214C147.078 17.8214 146.379 17.9938 145.785 18.3386C145.191 18.6835 144.731 19.172 144.406 19.8042C144.08 20.4173 143.917 21.1549 143.917 22.017C143.917 22.8791 144.09 23.6358 144.435 24.2872C144.779 24.9385 145.268 25.4462 145.9 25.8102C146.532 26.1551 147.26 26.3275 148.084 26.3275C148.793 26.3275 149.444 26.203 150.038 25.9539C150.651 25.7048 151.168 25.3408 151.59 24.8619L153.602 26.9022C152.931 27.6877 152.117 28.2816 151.159 28.6839C150.201 29.0862 149.186 29.2874 148.113 29.2874ZM166.51 29V21.0399C166.51 20.1203 166.213 19.3636 165.619 18.7697C165.044 18.1758 164.297 17.8789 163.377 17.8789C162.764 17.8789 162.218 18.013 161.739 18.2812C161.26 18.5494 160.887 18.923 160.618 19.4019C160.35 19.8809 160.216 20.4269 160.216 21.0399L158.98 20.3502C158.98 19.2965 159.21 18.3674 159.67 17.5628C160.13 16.739 160.762 16.0972 161.567 15.6374C162.391 15.1584 163.31 14.919 164.326 14.919C165.36 14.919 166.28 15.1872 167.084 15.7236C167.889 16.2409 168.521 16.921 168.981 17.7639C169.441 18.5877 169.671 19.4498 169.671 20.3502V29H166.51ZM157.055 29V15.2063H160.216V29H157.055Z" fill="#005F27"/>
<path fill-rule="evenodd" clip-rule="evenodd" d="M6.71007 7.08613C7.91007 6.68613 9.21007 6.68613 10.3101 7.18613C11.4101 7.68613 12.2101 8.58613 12.7101 9.68613C13.4101 11.5861 12.9101 13.5861 11.5101 15.1861L10.9101 15.8861L12.3101 19.6861C13.2101 18.6861 14.1101 17.6861 14.8101 16.5861C16.2101 14.7861 16.8101 12.7861 16.8101 10.9861C16.8101 10.0861 16.6101 9.28613 16.3101 8.38613C15.5101 6.28613 14.0101 4.68613 12.0101 3.68613C10.0101 2.78613 7.71007 2.68613 5.61007 3.38613H5.51008C1.21008 4.98613 -1.08992 9.68613 0.510076 13.8861C0.910076 15.0861 1.61008 16.0861 2.51008 16.9861L5.21007 14.2861C4.71007 13.7861 4.31007 13.2861 4.11007 12.5861C3.11007 10.4861 4.31007 7.98613 6.71007 7.08613Z" fill="#F59A00"/>
<path fill-rule="evenodd" clip-rule="evenodd" d="M21.5103 22.0861C21.1103 20.8861 20.4103 19.8861 19.5103 18.9861L19.4102 18.8861L16.9102 21.6861C16.9102 21.6861 17.7102 22.6861 17.9102 23.2861C18.7102 25.5861 17.5103 28.1861 15.2103 28.9861C14.0103 29.3861 12.8103 29.2861 11.7103 28.7861C10.6103 28.2861 9.71025 27.3861 9.31025 26.2861C8.71025 24.6861 9.11025 22.9861 10.2102 21.7861L11.5103 20.5861L10.0103 16.5861L7.11025 19.6861C5.31025 21.9861 4.71025 24.8861 5.71025 27.5861C6.51025 29.6861 8.01025 31.2861 10.0103 32.2861C12.0103 33.1861 14.3102 33.2861 16.4102 32.5861H16.5103C20.8103 30.9861 23.1103 26.2861 21.5103 22.0861Z" fill="#F59A00"/>
</svg>
