<?xml version="1.0" encoding="UTF-8"?><svg id="Layer_1" xmlns="http://www.w3.org/2000/svg" viewBox="0 0 128.98 31.39"><defs><style>.cls-1{fill:#f59a00;fill-rule:evenodd;}.cls-2{fill:#1c3660;}</style></defs><g><path class="cls-1" d="M6.82,4.02l.04-.02c1.16-.41,2.41-.35,3.52,.16,1.11,.51,1.94,1.42,2.37,2.55,.73,1.91,.23,3.9-1.24,5.53l-.6,.65,1.4,3.82c.92-.97,1.76-1.99,2.52-3.06,1.36-1.84,2.03-3.76,2-5.63-.01-.86-.18-1.72-.49-2.57-.76-2.07-2.3-3.72-4.33-4.66C9.98-.15,7.69-.25,5.57,.49l-.08,.03C1.18,2.08-1.06,6.8,.49,11.02c.44,1.18,1.14,2.24,2.05,3.11l2.65-2.68c-.49-.47-.87-1.05-1.11-1.69-.85-2.31,.38-4.89,2.73-5.74Z"/><path class="cls-1" d="M21.63,18.98c-.43-1.17-1.12-2.21-2.01-3.07-.03-.02-.08-.06-.08-.06l-2.55,2.77s.82,1.01,1.04,1.63c.85,2.31-.38,4.89-2.73,5.74l-.04,.02c-1.16,.41-2.41,.35-3.52-.16-1.11-.51-1.95-1.42-2.37-2.55-.57-1.55-.23-3.29,.9-4.52l1.26-1.25-1.46-3.96-2.95,3.06c-1.84,2.25-2.35,5.22-1.35,7.93,.76,2.07,2.3,3.72,4.33,4.66,2.03,.94,4.32,1.04,6.44,.3l.08-.03c4.31-1.56,6.55-6.28,5-10.5Z"/></g><g><polygon class="cls-2" points="34.81 22.63 34.81 5.53 31.5 5.53 31.5 25.64 33.77 25.64 34.81 25.64 44.29 25.64 44.29 22.63 34.81 22.63"/><path class="cls-2" d="M52.74,25.93c-1.34,0-2.56-.32-3.65-.96-1.09-.64-1.96-1.51-2.6-2.6-.64-1.09-.96-2.31-.96-3.65s.32-2.55,.96-3.62,1.51-1.93,2.6-2.57c1.09-.64,2.31-.96,3.65-.96s2.59,.32,3.68,.95c1.09,.63,1.96,1.49,2.6,2.57,.64,1.08,.96,2.29,.96,3.63s-.32,2.56-.96,3.65c-.64,1.09-1.51,1.96-2.6,2.6-1.09,.64-2.32,.96-3.68,.96Zm0-3.05c.79,0,1.48-.18,2.08-.53s1.07-.85,1.41-1.48c.33-.63,.5-1.35,.5-2.16s-.17-1.51-.52-2.13-.81-1.1-1.41-1.45-1.28-.53-2.07-.53-1.45,.18-2.05,.53c-.6,.35-1.07,.84-1.41,1.45-.34,.61-.5,1.32-.5,2.13s.17,1.52,.5,2.16c.33,.63,.8,1.13,1.41,1.48,.6,.35,1.29,.53,2.05,.53Z"/><path class="cls-2" d="M68.95,25.93c-1.36,0-2.59-.32-3.69-.95-1.1-.63-1.97-1.49-2.6-2.59-.63-1.09-.95-2.31-.95-3.65s.32-2.58,.95-3.66c.63-1.08,1.5-1.94,2.6-2.57,1.1-.63,2.33-.95,3.69-.95,1.07,0,2.07,.21,3,.62,.93,.41,1.72,1,2.37,1.77l-2.07,2.1c-.4-.48-.89-.84-1.45-1.08-.57-.24-1.18-.36-1.85-.36-.79,0-1.48,.18-2.08,.53-.6,.35-1.07,.84-1.41,1.45-.34,.61-.5,1.33-.5,2.16s.17,1.52,.5,2.14c.33,.62,.8,1.11,1.41,1.47,.6,.35,1.3,.53,2.08,.53,.67,0,1.29-.12,1.85-.36,.56-.24,1.05-.6,1.45-1.08l2.07,2.1c-.65,.77-1.44,1.36-2.37,1.77-.93,.41-1.93,.62-3,.62Z"/><path class="cls-2" d="M86.3,11.85v1.55c-.4-.46-.87-.85-1.42-1.16-.81-.45-1.75-.68-2.8-.68-1.25,0-2.37,.32-3.38,.96-1.01,.64-1.8,1.5-2.38,2.59-.58,1.08-.88,2.3-.88,3.66s.29,2.55,.88,3.64c.58,1.08,1.38,1.94,2.38,2.57,1.01,.63,2.13,.95,3.38,.95,1.05,0,1.99-.23,2.82-.67,.55-.3,1.02-.68,1.41-1.14v1.52h3.16V11.85h-3.16Zm-.88,9.91c-.72,.79-1.66,1.18-2.83,1.18-.77,0-1.44-.18-2.03-.53-.58-.35-1.04-.85-1.38-1.48-.34-.63-.5-1.36-.5-2.18s.17-1.55,.5-2.18c.33-.63,.79-1.12,1.38-1.48,.58-.35,1.26-.53,2.03-.53s1.47,.18,2.05,.53c.58,.35,1.04,.85,1.37,1.48,.32,.63,.49,1.36,.49,2.18,0,1.23-.36,2.23-1.08,3.02Z"/><path class="cls-2" d="M106.12,15.11c-.58-1.08-1.38-1.94-2.38-2.59-1.01-.64-2.13-.96-3.38-.96-1.03,0-1.96,.23-2.79,.68-.56,.31-1.04,.7-1.44,1.16v-1.55h-3.16V31.39h3.16v-7.27c.39,.45,.86,.83,1.41,1.14,.82,.45,1.76,.67,2.82,.67,1.25,0,2.37-.32,3.38-.95,1.01-.63,1.8-1.49,2.38-2.57s.88-2.29,.88-3.64-.29-2.58-.88-3.66Zm-2.87,5.82c-.34,.63-.8,1.13-1.38,1.48s-1.26,.53-2.03,.53-1.45-.18-2.04-.53c-.59-.35-1.05-.85-1.38-1.48-.33-.63-.49-1.36-.49-2.18s.16-1.55,.49-2.18c.33-.63,.79-1.12,1.38-1.48,.59-.35,1.27-.53,2.04-.53s1.44,.18,2.03,.53,1.04,.85,1.38,1.48c.33,.63,.5,1.36,.5,2.18s-.17,1.55-.5,2.18Z"/><path class="cls-2" d="M115.96,25.93c-1.34,0-2.56-.32-3.65-.96-1.09-.64-1.96-1.51-2.6-2.6-.64-1.09-.96-2.31-.96-3.65s.32-2.55,.96-3.62c.64-1.07,1.51-1.93,2.6-2.57,1.09-.64,2.31-.96,3.65-.96s2.59,.32,3.68,.95c1.09,.63,1.96,1.49,2.6,2.57,.64,1.08,.96,2.29,.96,3.63s-.32,2.56-.96,3.65c-.64,1.09-1.51,1.96-2.6,2.6-1.09,.64-2.32,.96-3.68,.96Zm0-3.05c.79,0,1.48-.18,2.08-.53s1.07-.85,1.41-1.48c.33-.63,.5-1.35,.5-2.16s-.17-1.51-.52-2.13-.81-1.1-1.41-1.45-1.28-.53-2.07-.53-1.45,.18-2.05,.53-1.07,.84-1.41,1.45c-.34,.61-.5,1.32-.5,2.13s.17,1.52,.5,2.16c.33,.63,.8,1.13,1.41,1.48s1.29,.53,2.05,.53Z"/><path class="cls-2" d="M125.81,25.64V4.95h3.16V25.64h-3.16Z"/></g></svg>