<svg xmlns="http://www.w3.org/2000/svg" width="151.45mm" height="45.75mm" viewBox="0 0 429.32 129.69"><defs><style>.cls-1{fill:#ea0029;}.cls-2{fill:#61a60e;}.cls-3{fill:#00a0df;}.cls-4{fill:#1d1d1b;}</style></defs><g id="Layer_2" data-name="Layer 2"><g id="Layer_1-2" data-name="Layer 1"><path class="cls-1" d="M29.33,0c16,3.91,29.78,20.38,29.78,39.88,0,40.75-38.41,48.17-38.41,72.06a21.5,21.5,0,0,0,.93,6.72C12,117.31,3.86,106.12,3.86,93.2c0-33.11,28.86-39.55,28.86-74,0-8.63-3.39-19.2-3.39-19.2"/><path class="cls-2" d="M68.26,47.06c7.95,6.85,12,17.3,12,26.92,0,34.81-39.4,39.05-39.4,52.38a9.63,9.63,0,0,0,.49,3.33c-6.26-2.34-11-9.55-11-16.32,0-21.29,32.58-26.75,38-66.31"/><path class="cls-3" d="M9.65,11a16.77,16.77,0,0,1,1.89,7.21C11.54,30.47,0,35.12,0,47.55A15.76,15.76,0,0,0,7.7,61a16.87,16.87,0,0,1,.49-2.88C10.9,49.5,23.55,40,23.55,26.42A15.74,15.74,0,0,0,9.65,11"/><path class="cls-4" d="M157.8,86.44c0,13.54-8.54,21.17-23.53,21.17h-15v22.08H103.2V65.54h31.16C149.35,65.54,157.8,73.09,157.8,86.44Zm-15.44-.09c0-5.54-3.73-8.63-10.27-8.63H119.28V95.25H132C138.63,95.25,142.36,92.08,142.36,86.35Z"/><path class="cls-4" d="M211.59,116.51v13.18h-47.7V65.54h47.16V78.72H180v11.9h27.8v12.72H180v13.17Z"/><path class="cls-4" d="M266.51,78.72h-17v51h-16v-51h-17V65.54h50Z"/><path class="cls-4" d="M296.08,100.8l-8.36,8.72v20.17H271.64V65.54h16.08V91.8l24-26.26h18.35L306.8,89.71l24.62,40H313.53Z"/><path class="cls-4" d="M336.8,65.54h16V77.81h-16Zm0,16.2h16.09v48H336.8Z"/><path class="cls-4" d="M429.32,129.69H414.51V97.07c0-4.45.18-11.17.45-17.26-2,7.72-4.18,15.63-5.09,18.72l-9.08,31.16H387.07L378,98.53c-1-3.09-3.18-11.36-5.27-19.17.28,6.27.46,13.17.46,17.71v32.62h-14.9V65.54H380.8L390.07,98c.63,2,2.09,8,3.63,14.36,1.73-6.46,3.46-12.45,4-14.45L407,65.54h22.35Z"/></g></g></svg>