<?xml version="1.0" encoding="utf-8"?>
<!-- Generator: Adobe Illustrator 24.0.0, SVG Export Plug-In . SVG Version: 6.00 Build 0)  -->
<svg version="1.1" id="Layer_1" xmlns="http://www.w3.org/2000/svg" xmlns:xlink="http://www.w3.org/1999/xlink" x="0px" y="0px"
	 viewBox="0 0 283.46 103.46" style="enable-background:new 0 0 283.46 103.46;" xml:space="preserve">
<style type="text/css">
	.st0{fill:#008993;}
</style>
<g>
	<path class="st0" d="M78.76,75.51c0,0,12.71,0,14.87,0c4.8,0,5.64-3.15,5.92-6.03c0.25-2.6,3.65-41.53,3.65-41.53s-13.09,0-14.79,0
		c-4.21,0-5.69,2.42-6.04,6.38C82.19,36.31,78.76,75.51,78.76,75.51z"/>
	<path class="st0" d="M181.54,64.36h-5.18l3.19-36.41h-20.28c0,0-3.46,40.28-3.67,42.28c-0.21,2,1.78,5.29,5.28,5.29
		c2.65,0,33.06,0,35.13,0c3.02,0,5.05-2.43,5.26-4.77c0.21-2.34,3.73-42.79,3.73-42.79h-20.28L181.54,64.36z"/>
	<path class="st0" d="M37.31,27.95c-3.62,0-5.6,1.88-5.98,6.3c-0.19,2.2-1.46,16.5-1.62,18.56c-0.16,2.06,0.61,3.87,3.18,3.87
		s22.01,0,22.01,0l-0.78,8.94h-5.24l0.36-4.12H28.95c0,0-0.58,7.12-0.84,9.57c-0.26,2.45,0.51,4.44,3.7,4.44c3.19,0,33.48,0,36.03,0
		c5.7,0,6-4.19,6.33-7.36c0.31-2.93,1.48-16.78,1.63-18.52c0.15-1.74-1.08-2.84-2.75-2.84c-1.67,0-22.52,0-22.52,0l0.78-8.95h5.24
		l-0.36,4.12h20.28c0,0,0.65-7.97,0.88-10.21c0.23-2.24-0.93-3.8-3.29-3.8C71.68,27.95,39.45,27.95,37.31,27.95z"/>
	<path class="st0" d="M108.36,27.95l-4.16,47.56c0,0,38.83,0,40.58,0c3.42,0,5.34-2.13,5.66-5.8c0.13-1.49,0.58-6.53,0.94-10.68
		c0.13-1.49-0.22-2.8-1.5-3.74c-1.1-0.81-4.78-3.53-4.78-3.53s4.59-3,5.79-3.78c1.19-0.78,1.62-1.73,1.77-3.57
		c0.34-4.14,0.78-8.88,0.88-10.19c0.27-3.43-1.66-6.29-5.8-6.29C145.82,27.95,108.36,27.95,108.36,27.95z M132.95,37.84l-0.78,8.94
		h-5.18l0.78-8.94H132.95z M126.12,56.68h5.18l-0.78,8.95h-5.18L126.12,56.68z"/>
	<path class="st0" d="M250.24,27.95c-2.26,0-40.06,0-40.06,0l-4.16,47.56h20.28l1.29-14.71h5.15l-1.29,14.71h20.28
		c0,0,0.89-10.46,1.05-12c0.16-1.54-0.15-3.16-1.62-4.24c-1.47-1.09-4.62-3.41-4.62-3.41s4.12-2.66,5.42-3.54
		c1.3-0.88,1.98-1.82,2.21-4.53c0.23-2.71,1.09-12.35,1.23-14.16C255.61,30.52,252.99,27.95,250.24,27.95z M228.45,50.91l1.03-11.8
		h5.15l-1.03,11.8H228.45z"/>
</g>
</svg>
