<svg width="191" height="92" viewBox="0 0 191 92" fill="none" xmlns="http://www.w3.org/2000/svg">
<path d="M59.3227 10.2035C59.2227 10.1035 59.2227 10.1035 59.2227 10.1035C59.2227 10.1035 59.3227 10.1035 59.3227 10.2035Z" fill="#09539F"/>
<path d="M18.2219 69.8038C17.5219 67.1038 15.8219 65.2038 12.5219 65.2038C7.62187 65.2038 5.52187 69.6038 5.52187 74.0038C5.52187 78.4038 7.62187 82.8038 12.5219 82.8038C16.0219 82.8038 18.0219 80.1038 18.3219 76.8038H22.2219C21.9219 82.3038 18.0219 86.1038 12.4219 86.1038C5.52187 86.1038 1.42188 80.6038 1.42188 74.0038C1.42188 67.4038 5.52187 61.9038 12.4219 61.9038C17.6219 62.0038 21.7219 64.8038 22.2219 69.7038L18.2219 69.8038ZM24.5219 85.5038H28.2219V62.5038H24.5219V85.5038ZM46.4219 78.1038C47.0219 73.1038 43.8219 68.4038 38.6219 68.4038C33.6219 68.4038 30.6219 72.4038 30.6219 77.2038C30.6219 82.3038 33.5219 86.0038 38.8219 86.0038C42.5219 86.0038 45.5219 83.9038 46.3219 80.3038H42.8219C42.2219 82.2038 40.9219 83.1038 38.8219 83.1038C35.8219 83.1038 34.3219 80.8038 34.3219 78.2038L46.4219 78.1038ZM34.1219 75.7038C34.2219 73.2038 36.0219 71.3038 38.5219 71.3038C41.0219 71.3038 42.5219 73.4038 42.7219 75.7038H34.1219ZM62.1219 73.2038C62.1219 69.7038 58.7219 68.3038 55.4219 68.3038C51.7219 68.3038 48.1219 69.5038 47.8219 73.8038H51.5219C51.7219 72.0038 53.1219 71.1038 55.2219 71.1038C56.7219 71.1038 58.6219 71.5038 58.6219 73.3038C58.6219 75.5038 56.2219 75.2038 53.6219 75.7038C50.5219 76.1038 47.2219 76.8038 47.2219 80.9038C47.2219 84.1038 49.9219 85.8038 52.9219 85.8038C54.9219 85.8038 57.2219 85.2038 58.7219 83.7038C59.0219 85.2038 60.1219 85.8038 61.6219 85.8038C62.2219 85.8038 63.3219 85.6038 63.9219 85.4038V82.8038C63.5219 82.9038 63.2219 82.9038 63.0219 82.9038C62.3219 82.9038 62.1219 82.5038 62.1219 81.7038V73.2038ZM58.4219 79.9038C58.4219 82.2038 55.9219 83.1038 54.3219 83.1038C53.0219 83.1038 50.9219 82.6038 50.9219 81.0038C50.9219 79.1038 52.3219 78.5038 53.9219 78.2038C55.5219 77.9038 57.3219 78.0038 58.4219 77.2038V79.9038ZM65.1219 85.5038H68.8219V75.7038C68.8219 73.3038 70.4219 71.3038 72.8219 71.3038C75.0219 71.3038 76.0219 72.4038 76.0219 75.0038V85.5038H79.7219V74.1038C79.7219 70.4038 77.4219 68.4038 73.8219 68.4038C71.6219 68.4038 69.7219 69.5038 68.6219 71.4038L68.5219 71.3038V68.9038H65.0219V85.5038H65.1219ZM89.8219 77.8038C89.9219 83.5038 94.2219 86.0038 99.4219 86.0038C104.022 86.0038 108.522 83.9038 108.522 78.8038C108.522 76.4038 107.122 73.8038 104.022 73.0038C102.822 72.6038 97.7219 71.3038 97.3219 71.3038C95.7219 70.9038 94.6219 69.9038 94.6219 68.3038C94.6219 66.0038 97.0219 65.3038 98.8219 65.3038C101.622 65.3038 103.622 66.4038 103.822 69.3038H107.822C107.822 64.5038 103.822 62.0038 99.0219 62.0038C94.8219 62.0038 90.6219 64.2038 90.6219 68.8038C90.6219 71.2038 91.8219 73.6038 95.7219 74.6038C98.9219 75.5038 100.922 75.9038 102.522 76.5038C103.422 76.9038 104.422 77.6038 104.422 79.4038C104.422 81.1038 103.122 82.9038 99.5219 82.9038C96.3219 82.9038 93.7219 81.5038 93.7219 78.0038H89.7219V77.8038H89.8219ZM114.222 85.5038H118.122L121.122 73.1038H121.222L124.322 85.5038H128.122L133.322 68.8038H129.622L126.222 81.2038H126.122L123.122 68.8038H119.422L116.322 81.2038H116.222L113.022 68.8038H109.122L114.222 85.5038ZM149.822 78.1038C150.422 73.1038 147.222 68.4038 142.022 68.4038C137.022 68.4038 133.922 72.4038 133.922 77.2038C133.922 82.3038 136.822 86.0038 142.122 86.0038C145.822 86.0038 148.822 83.9038 149.622 80.3038H146.122C145.522 82.2038 144.222 83.1038 142.122 83.1038C139.122 83.1038 137.622 80.8038 137.622 78.2038L149.822 78.1038ZM137.522 75.7038C137.622 73.2038 139.422 71.3038 141.922 71.3038C144.422 71.3038 145.922 73.4038 146.122 75.7038H137.522ZM166.822 78.1038C167.422 73.1038 164.222 68.4038 159.022 68.4038C154.022 68.4038 150.922 72.4038 150.922 77.2038C150.922 82.3038 153.822 86.0038 159.122 86.0038C162.822 86.0038 165.822 83.9038 166.622 80.3038H163.122C162.522 82.2038 161.222 83.1038 159.122 83.1038C156.122 83.1038 154.622 80.8038 154.622 78.2038L166.822 78.1038ZM154.522 75.7038C154.622 73.2038 156.422 71.3038 158.922 71.3038C161.422 71.3038 162.922 73.4038 163.122 75.7038H154.522ZM168.722 91.6038H172.422V83.3038H172.522C173.722 85.2038 175.922 85.9038 178.122 85.9038C183.022 85.9038 185.322 81.7038 185.322 77.2038C185.322 72.3038 182.722 68.4038 177.522 68.4038C175.422 68.4038 173.422 69.2038 172.322 71.1038H172.222V68.8038H168.722V91.6038ZM176.922 71.2038C179.922 71.2038 181.522 74.1038 181.522 77.1038C181.522 80.0038 180.322 82.9038 176.922 82.9038C173.922 82.9038 172.222 80.4038 172.222 77.1038C172.222 73.6038 173.822 71.2038 176.922 71.2038Z" fill="#6EB74C"/>
<path d="M20.7228 11.5037C-8.17721 16.4037 4.1228 49.2037 4.1228 49.2037C-11.5772 16.2037 22.6228 3.3037 22.6228 3.3037C17.4228 0.203704 4.1228 10.1037 4.1228 10.1037C11.8228 -0.496308 29.1228 0.00371634 29.1228 0.00371634C48.3228 1.10372 53.2228 18.7037 53.2228 18.7037C54.3228 21.6037 54.7228 24.3037 54.7228 26.8037C54.5228 23.8037 53.7228 20.5037 52.1228 16.7037C52.1228 16.6037 52.0228 16.6037 52.0228 16.6037C52.0228 16.6037 52.0228 16.7037 52.1228 16.7037C52.8228 18.3037 61.2228 39.4037 38.3228 43.2037C38.3228 43.2037 53.0228 36.4037 48.0228 22.5037C48.0228 22.5037 44.6228 10.3037 31.4228 9.60369C31.2228 9.50369 25.9228 9.40372 20.7228 11.5037ZM40.7228 55.9037C40.7228 55.9037 74.4228 44.8037 59.3228 10.2037C60.0228 11.8037 66.9228 29.1037 56.9228 40.2037C49.9228 50.4037 35.3228 50.5037 35.3228 50.5037C20.6228 50.1037 17.4228 36.9037 17.4228 36.9037C14.9228 21.7037 27.8228 17.3037 27.8228 17.3037C4.92279 19.3037 14.0228 43.5037 14.0228 43.5037C3.22279 20.8037 26.8228 11.8037 26.8228 11.8037C25.6228 11.1037 23.8228 11.3037 21.9228 12.1037C17.0228 14.7037 6.3228 22.4037 9.1228 39.6037C9.1228 39.6037 13.8228 58.8037 35.0228 59.3037C35.0228 59.3037 49.7228 60.6037 59.2228 49.2037C59.2228 49.2037 48.7228 58.0037 40.7228 55.9037ZM65.1228 61.9037H69.0228V53.1037H69.1228C70.3228 55.1037 72.7228 55.9037 75.0228 55.9037C80.2228 55.9037 82.6228 51.4037 82.6228 46.7037C82.6228 41.6037 79.9228 37.4037 74.4228 37.4037C72.2228 37.4037 70.1228 38.3037 68.9228 40.2037H68.8228V37.8037H65.1228V61.9037ZM73.8228 40.4037C77.0228 40.4037 78.7228 43.4037 78.7228 46.6037C78.7228 49.7037 77.4228 52.8037 73.8228 52.8037C70.6228 52.8037 68.9228 50.2037 68.9228 46.6037C68.9228 42.9037 70.5228 40.4037 73.8228 40.4037ZM100.823 47.6037C101.523 42.3037 98.0228 37.3037 92.5228 37.3037C87.2228 37.3037 83.9228 41.6037 83.9228 46.6037C83.9228 52.0037 87.0228 55.9037 92.5228 55.9037C96.4228 55.9037 99.6228 53.7037 100.523 49.9037H96.8228C96.1228 51.9037 94.8228 52.9037 92.5228 52.9037C89.3228 52.9037 87.8228 50.5037 87.8228 47.7037L100.823 47.6037ZM87.8228 45.0037C87.9228 42.4037 89.8228 40.3037 92.4228 40.3037C95.0228 40.3037 96.7228 42.5037 96.8228 45.0037H87.8228ZM102.723 55.4037H106.623V47.0037C106.623 43.1037 108.723 40.9037 111.423 40.9037C111.923 40.9037 112.523 41.0037 113.023 41.1037V37.4037C112.723 37.3037 112.423 37.3037 111.623 37.3037C109.223 37.3037 106.923 39.3037 106.523 41.2037H106.423V37.8037H102.823L102.723 55.4037ZM128.523 42.5037C128.523 38.8037 124.923 37.4037 121.523 37.4037C117.623 37.4037 113.723 38.7037 113.523 43.3037H117.423C117.623 41.4037 119.123 40.5037 121.323 40.5037C122.923 40.5037 124.923 40.9037 124.923 42.9037C124.923 45.2037 122.423 44.9037 119.623 45.4037C116.323 45.8037 112.823 46.5037 112.823 50.9037C112.823 54.3037 115.623 56.0037 118.923 56.0037C121.023 56.0037 123.423 55.3037 125.023 53.8037C125.323 55.4037 126.423 56.0037 128.023 56.0037C128.723 56.0037 129.923 55.7037 130.423 55.5037V52.8037C130.023 52.9037 129.723 52.9037 129.423 52.9037C128.723 52.9037 128.523 52.5037 128.523 51.6037V42.5037ZM124.523 49.5037C124.523 51.9037 121.923 52.9037 120.223 52.9037C118.823 52.9037 116.623 52.4037 116.623 50.7037C116.623 48.7037 118.123 48.1037 119.823 47.7037C121.523 47.4037 123.423 47.4037 124.623 46.6037L124.523 49.5037ZM129.923 40.7037H132.923V51.1037C133.023 54.1037 133.723 55.6037 137.823 55.6037C138.723 55.6037 139.423 55.5037 140.323 55.4037V52.4037C139.823 52.5037 139.223 52.5037 138.723 52.5037C137.023 52.5037 136.823 51.7037 136.823 50.1037V40.7037H140.323V37.8037H136.823V32.5037H132.923V37.8037H129.923V40.7037ZM142.023 34.8037H145.923V31.1037H142.023V34.8037ZM142.023 55.4037H145.923V37.8037H142.023V55.4037ZM148.323 46.6037C148.323 52.0037 151.523 55.9037 157.223 55.9037C162.923 55.9037 166.123 52.0037 166.123 46.6037C166.123 41.2037 162.923 37.3037 157.223 37.3037C151.523 37.3037 148.323 41.2037 148.323 46.6037ZM162.223 46.6037C162.223 49.7037 160.723 52.8037 157.223 52.8037C153.723 52.8037 152.223 49.6037 152.223 46.6037C152.223 43.6037 153.723 40.4037 157.223 40.4037C160.723 40.4037 162.223 43.6037 162.223 46.6037ZM168.323 55.4037H172.223V45.0037C172.223 42.4037 173.823 40.4037 176.523 40.4037C178.823 40.4037 179.923 41.6037 179.923 44.3037V55.4037H183.823V43.3037C183.823 39.4037 181.423 37.3037 177.623 37.3037C175.323 37.3037 173.323 38.5037 172.123 40.5037L172.023 40.4037V37.8037H168.323V55.4037ZM187.523 61.7037C185.823 61.7037 184.323 63.1037 184.323 64.9037C184.323 66.7037 185.823 68.1037 187.523 68.1037C189.223 68.1037 190.723 66.7037 190.723 64.9037C190.723 63.1037 189.223 61.7037 187.523 61.7037ZM187.523 67.6037C186.023 67.6037 184.923 66.4037 184.923 64.9037C184.923 63.3037 186.023 62.2037 187.523 62.2037C189.023 62.2037 190.123 63.4037 190.123 64.9037C190.123 66.5037 189.023 67.6037 187.523 67.6037ZM186.223 66.8037H186.823V65.2037H187.423L188.423 66.8037H189.023L187.923 65.2037C188.523 65.1037 188.923 64.8037 188.923 64.2037C188.923 63.5037 188.523 63.1037 187.623 63.1037H186.223V66.8037V66.8037ZM186.823 63.5037H187.523C187.923 63.5037 188.323 63.6037 188.323 64.1037C188.323 64.7037 187.923 64.7037 187.323 64.7037H186.723L186.823 63.5037Z" fill="#09539F"/>
</svg>
