<svg width="45" height="27" viewBox="0 0 45 27" fill="none" xmlns="http://www.w3.org/2000/svg">
<path fill-rule="evenodd" clip-rule="evenodd" d="M0.508419 0.566445C0.669174 0.386889 0.860144 0.244431 1.07039 0.147231C1.28064 0.0500313 1.50603 0 1.73366 0C1.96129 0 2.18668 0.0500313 2.39693 0.147231C2.60718 0.244431 2.79815 0.386889 2.9589 0.566445L22.5005 22.3422L42.042 0.566445C42.2029 0.38718 42.3939 0.244979 42.6042 0.147961C42.8144 0.0509439 43.0397 0.00100948 43.2672 0.00100948C43.4948 0.00100948 43.7201 0.0509439 43.9303 0.147961C44.1406 0.244979 44.3316 0.38718 44.4925 0.566445C44.6534 0.745709 44.781 0.958527 44.8681 1.19275C44.9552 1.42697 45 1.67801 45 1.93152C45 2.18504 44.9552 2.43608 44.8681 2.6703C44.781 2.90452 44.6534 3.11734 44.4925 3.29661L23.7257 26.4336C23.5649 26.6131 23.374 26.7556 23.1637 26.8528C22.9535 26.95 22.7281 27 22.5005 27C22.2728 27 22.0474 26.95 21.8372 26.8528C21.6269 26.7556 21.436 26.6131 21.2752 26.4336L0.508419 3.29661C0.347258 3.1175 0.219393 2.90474 0.132151 2.67049C0.0449077 2.43625 0 2.18513 0 1.93152C0 1.67792 0.0449077 1.4268 0.132151 1.19256C0.219393 0.958312 0.347258 0.745546 0.508419 0.566445V0.566445Z" fill="#1A2B3B"/>
</svg>
