<svg width="100" height="28" viewBox="0 0 100 28" fill="none" xmlns="http://www.w3.org/2000/svg">
<path fill-rule="evenodd" clip-rule="evenodd" d="M15.2497 3.67992L15.2897 3.66992C16.3497 3.29992 17.4897 3.34992 18.5097 3.81992C19.5297 4.28992 20.2797 5.11992 20.6797 6.14992C21.3497 7.89992 20.8897 9.71992 19.5397 11.2099L18.9997 11.8099L20.2797 15.2999C21.1197 14.4099 21.8897 13.4799 22.5897 12.4999C23.8397 10.8199 24.4497 9.05992 24.4197 7.34992C24.4097 6.55992 24.2597 5.77992 23.9697 4.99992C23.2697 3.10992 21.8697 1.59992 20.0097 0.739921C18.1497 -0.120079 16.0597 -0.210079 14.1197 0.469921L14.0497 0.499921C10.1097 1.92992 8.0597 6.23992 9.4797 10.0999C9.8797 11.1799 10.5297 12.1499 11.3497 12.9399L13.7797 10.4899C13.3297 10.0599 12.9797 9.52992 12.7597 8.94992C11.9797 6.81992 13.0997 4.45992 15.2497 3.67992Z" fill="#FFA100"/>
<path fill-rule="evenodd" clip-rule="evenodd" d="M28.8004 17.3599C28.4104 16.2899 27.7704 15.3399 26.9604 14.5499C26.9404 14.5299 26.8804 14.4999 26.8804 14.4999L24.5604 17.0299C24.5604 17.0299 25.3104 17.9499 25.5204 18.5199C26.3004 20.6299 25.1804 22.9899 23.0204 23.7699L22.9804 23.7799C21.9204 24.1499 20.7804 24.0999 19.7604 23.6299C18.7404 23.1599 17.9704 22.3399 17.5904 21.2999C17.0704 19.8799 17.3804 18.2899 18.4104 17.1699L19.5704 16.0299L18.2404 12.4099L15.5404 15.2099C13.8504 17.2699 13.3904 19.9799 14.3004 22.4599C15.0004 24.3499 16.4004 25.8599 18.2604 26.7199C20.1204 27.5799 22.2104 27.6699 24.1504 26.9899L24.2204 26.9599C28.1704 25.5399 30.2204 21.2299 28.8004 17.3599Z" fill="#FFA100"/>
<path d="M56.7705 20.82L52.7906 14.98H50.3105V27.13H53.6905V21.81L56.7605 26.03L59.8305 21.7V27.13H63.2105V14.98H60.7405L56.7705 20.82Z" fill="#0C0C0C"/>
<path d="M36.1192 12.65V0.5H32.7092V6.93L27.5892 0.5H25.1992V12.65H28.6092V6.43L33.5592 12.65H36.1192Z" fill="#0C0C0C"/>
<path d="M55.1405 8.33H60.4705V5.5H55.1405V3.33H60.7205V0.5H55.1405H54.4905H51.7305V12.65H55.1405V8.33Z" fill="#0C0C0C"/>
<path d="M65.6209 0.5H62.2109V12.65H65.6209V0.5Z" fill="#0C0C0C"/>
<path d="M71.0409 12.65H76.9109V9.82H71.0409V7.84H76.2809V5.07H71.0409V3.33H76.8109V0.5H71.0409H70.3909H67.6309V12.65H70.3909H71.0409Z" fill="#0C0C0C"/>
<path d="M81.9393 12.65H86.9893V9.75H81.9393V0.5H78.5293V12.65H81.3093H81.9393Z" fill="#0C0C0C"/>
<path d="M99.5093 4.08C99.1893 3.34 98.7293 2.7 98.1393 2.16C97.5493 1.63 96.8493 1.22 96.0493 0.93C95.2493 0.65 94.3693 0.5 93.4093 0.5H91.6993H90.3993H88.2793V12.65H90.5693H91.6993H93.4393C94.3793 12.65 95.2493 12.51 96.0493 12.22C96.8493 11.94 97.5393 11.53 98.1293 10.99C98.7193 10.46 99.1793 9.82 99.4993 9.07C99.8193 8.33 99.9893 7.49 99.9893 6.57C99.9993 5.65 99.8293 4.82 99.5093 4.08ZM96.1393 8.33C95.8893 8.81 95.5293 9.16 95.0693 9.4C94.5993 9.63 94.0493 9.75 93.4193 9.75H91.7093V3.4H93.4193C94.0593 3.4 94.6093 3.52 95.0693 3.75C95.5293 3.98 95.8893 4.33 96.1393 4.8C96.3993 5.27 96.5193 5.85 96.5193 6.56C96.5093 7.26 96.3893 7.85 96.1393 8.33Z" fill="#0C0C0C"/>
<path d="M11.1602 15.45C10.5302 15.14 9.82016 14.98 9.04016 14.98H6.82015H6.17016H3.41016V27.13H6.82015V22.87H9.04016C9.82016 22.87 10.5302 22.71 11.1602 22.4C11.7902 22.09 12.2902 21.64 12.6602 21.04C13.0302 20.45 13.2102 19.74 13.2102 18.92C13.2102 18.09 13.0202 17.38 12.6602 16.8C12.2902 16.22 11.7902 15.77 11.1602 15.45ZM9.63016 19.75C9.49016 19.97 9.31015 20.14 9.09015 20.24C8.87015 20.35 8.63016 20.4 8.36016 20.4H6.81016V17.43H8.36016C8.62016 17.43 8.86015 17.48 9.09015 17.59C9.31015 17.7 9.49016 17.86 9.63016 18.08C9.77016 18.3 9.83016 18.58 9.83016 18.91C9.83016 19.26 9.77016 19.53 9.63016 19.75Z" fill="#0C0C0C"/>
<path d="M33.3202 14.98H29.9102V27.13H32.6902H33.3202H38.3702V24.23H33.3202V14.98Z" fill="#0C0C0C"/>
<path d="M8.46 12.7001V9.80006H3.41V0.560059H0V12.7001H2.78H3.41H8.46Z" fill="#0C0C0C"/>
<path d="M43.2801 18.76L41.2501 14.98H37.3301L41.5601 22.28V27.13H44.9701V22.13L49.1501 14.98H45.3101L43.2801 18.76Z" fill="#0C0C0C"/>
<path d="M68.6405 22.32H73.8805V19.56H68.6405V17.82H74.4005V14.98H68.6405H67.9905H65.2305V27.13H67.9905H68.6405H74.5105V24.3H68.6405V22.32Z" fill="#0C0C0C"/>
<path d="M83.6691 21.83C84.3291 21.52 84.8391 21.1 85.2091 20.55C85.5791 20 85.7591 19.37 85.7591 18.64C85.7591 17.91 85.5791 17.28 85.2091 16.73C84.8491 16.18 84.3491 15.76 83.7091 15.45C83.0691 15.14 82.3291 14.99 81.4891 14.99H79.5291H78.8791H76.1191V27.14H79.5291V22.29H79.5791L82.6691 27.14H86.5391L82.9791 22.08C83.2291 22 83.4591 21.92 83.6691 21.83ZM82.0191 19.59C81.7791 19.82 81.4191 19.93 80.9491 19.93H79.5291V17.44H80.9491C81.4191 17.44 81.7691 17.55 82.0191 17.78C82.2591 18.01 82.3891 18.31 82.3891 18.68C82.3891 19.06 82.2691 19.36 82.0191 19.59Z" fill="#0C0C0C"/>
<path d="M90.8098 17.68C91.0198 17.57 91.2998 17.51 91.6498 17.51C92.0898 17.51 92.4998 17.6 92.8798 17.77C93.2598 17.95 93.6298 18.22 94.0098 18.58L96.1598 16.45C95.6498 15.92 94.9998 15.5 94.2198 15.21C93.4398 14.92 92.5998 14.78 91.6898 14.78C90.7698 14.78 89.9698 14.93 89.2798 15.23C88.5998 15.53 88.0698 15.97 87.6898 16.54C87.3098 17.11 87.1298 17.79 87.1298 18.57C87.1298 19.17 87.2298 19.68 87.4398 20.1C87.6398 20.52 87.9098 20.86 88.2498 21.14C88.5898 21.42 88.9498 21.65 89.3498 21.85C89.7498 22.04 90.1498 22.21 90.5498 22.34C90.9498 22.48 91.3198 22.61 91.6598 22.74C91.9998 22.87 92.2698 23.02 92.4698 23.18C92.6698 23.35 92.7798 23.55 92.7798 23.8C92.7798 24.05 92.6598 24.25 92.4198 24.39C92.1798 24.53 91.8298 24.6 91.3598 24.6C90.7998 24.6 90.2798 24.49 89.7898 24.27C89.2998 24.05 88.8298 23.73 88.3898 23.31L86.2598 25.44C86.9098 26.1 87.6198 26.58 88.3798 26.88C89.1498 27.18 90.0498 27.33 91.0798 27.33C92.6798 27.33 93.9298 26.99 94.8098 26.31C95.6898 25.63 96.1298 24.68 96.1298 23.44C96.1298 22.83 96.0298 22.3 95.8198 21.87C95.6198 21.44 95.3498 21.08 95.0098 20.79C94.6698 20.5 94.3098 20.26 93.9098 20.07C93.5098 19.88 93.1098 19.72 92.7098 19.58C92.3098 19.44 91.9398 19.31 91.5998 19.19C91.2598 19.07 90.9898 18.93 90.7898 18.77C90.5898 18.62 90.4798 18.42 90.4798 18.18C90.4898 17.96 90.5998 17.79 90.8098 17.68Z" fill="#0C0C0C"/>
<path d="M44.1801 12.98C46.0301 12.98 47.5301 12.4 48.6701 11.24C49.8101 10.08 50.3801 8.62 50.3801 6.85V5.38H44.0701V8.39H46.7101C46.3001 9.26 45.4801 9.7 44.2501 9.7C43.1901 9.7 42.4001 9.38 41.8901 8.75C41.3801 8.12 41.1301 7.38 41.1301 6.53C41.1301 5.63 41.4001 4.9 41.9501 4.33C42.5001 3.76 43.2201 3.48 44.1001 3.48C45.1901 3.48 45.9801 3.86 46.4701 4.61L46.4801 4.6L48.9301 2.15C48.4501 1.6 47.8801 1.15 47.2001 0.779999C46.2401 0.259999 45.1801 0 44.0201 0C42.1801 0 40.6401 0.619999 39.4201 1.87C38.1901 3.12 37.5801 4.66 37.5801 6.5C37.5801 8.34 38.1901 9.88 39.4201 11.11C40.6601 12.36 42.2401 12.98 44.1801 12.98Z" fill="#0C0C0C"/>
</svg>
