<svg width="213" height="300" viewBox="0 0 213 300" fill="none" xmlns="http://www.w3.org/2000/svg">
<path d="M200.499 292.724L207.563 288.637L209.399 287.585C211.358 286.063 212.701 283.7 212.701 280.868V116.763C212.701 115.42 212.377 114.11 211.795 112.935L203.992 117.457C204.574 118.599 204.865 119.853 204.865 121.163V285.257C204.865 286.745 204.484 288.145 203.846 289.32C203.063 290.764 201.898 291.929 200.499 292.724Z" fill="#B3B3B3"/>
<path d="M121.431 297.224V300L157.03 279.435V276.659L154.634 278.036L121.431 297.224Z" fill="#B3B3B3"/>
<path d="M62.3887 263.135V265.912L121.43 300V297.224L64.7844 264.546L62.3887 263.135Z" fill="#808080"/>
<path d="M62.3887 263.136L64.7844 264.546L121.43 297.224L154.634 278.036L157.03 276.659L98.033 242.571L62.3887 263.136Z" fill="#E6E1E2"/>
<path d="M91.9092 229.103L98.5701 232.954L126.288 248.963L132.949 245.19L98.5701 225.331L91.9092 229.103Z" fill="#F2F2F2"/>
<path d="M91.9092 229.103V260.729L126.288 280.566V248.963L98.5701 232.954L91.9092 229.103Z" fill="#CCCCCC"/>
<path d="M126.288 248.963V280.566L132.949 276.793V245.19L126.288 248.963Z" fill="#808080"/>
<path d="M4.62305 5.39736C5.91045 4.72567 7.36577 4.401 8.85468 4.46817C10.1645 4.50175 11.5079 4.84882 12.7729 5.57648L200.644 113.83C202.133 114.703 203.297 115.957 204.003 117.48L211.805 112.957C211.078 111.502 209.902 110.237 208.447 109.397L20.5757 1.14331C17.8329 -0.435158 14.732 -0.289633 12.2803 1.03135L11.6981 1.37843L4.62305 5.39736Z" fill="#E6E6E6"/>
<path d="M204.876 285.279C204.876 286.768 204.495 288.167 203.857 289.342C203.073 290.775 201.898 291.94 200.499 292.735C198.047 294.078 194.924 294.279 192.147 292.678L4.276 184.402C1.64522 182.88 0.0107422 180.081 0.0107422 177.047V148.904L204.887 267.188V285.279H204.876Z" fill="#F2F2F2"/>
<path d="M100.104 65.5919L1.23144 8.52075C0.470189 9.80816 0 11.2971 0 12.9315V148.904L100.104 206.68L204.876 267.177V126.122L100.104 65.5919Z" fill="#222D3A"/>
<path d="M4.62402 5.39733C5.91142 4.72564 7.36675 4.40097 8.85566 4.46814C10.1654 4.50172 11.5088 4.84878 12.7738 5.57645L200.645 113.83C202.134 114.703 203.298 115.957 204.004 117.48C204.586 118.622 204.877 119.875 204.877 121.185V126.111L1.24316 8.54306C2.06039 7.18849 3.24706 6.1026 4.62402 5.39733Z" fill="#F2F2F2"/>
<g opacity="0.56">
<g opacity="0.56">
<g opacity="0.56">
<g opacity="0.56">
<path opacity="0.0323" d="M205.28 126.335C205.235 126.413 204.172 125.887 202.907 125.159L3.5047 10.032C2.23969 9.30433 1.25454 8.64384 1.29932 8.56547C1.3441 8.48711 2.4076 9.01325 3.67261 9.74091L203.086 124.868C204.351 125.607 205.336 126.257 205.28 126.335Z" fill="#222D3A"/>
<path opacity="0.0645" d="M205.225 126.301C205.18 126.38 204.151 125.865 202.919 125.159L3.50594 10.0319C2.27451 9.32663 1.32295 8.68854 1.36773 8.61018C1.41251 8.53181 2.44243 9.04676 3.67386 9.75204L203.087 124.879C204.307 125.585 205.27 126.223 205.225 126.301Z" fill="#222D3A"/>
<path opacity="0.0968" d="M205.158 126.268C205.113 126.346 204.117 125.853 202.919 125.159L3.50566 10.032C2.31901 9.34907 1.37863 8.72217 1.42341 8.64381C1.46819 8.56545 2.46453 9.05801 3.66237 9.75209L203.076 124.88C204.273 125.574 205.203 126.189 205.158 126.268Z" fill="#222D3A"/>
<path opacity="0.129" d="M205.09 126.234C205.046 126.313 204.072 125.831 202.919 125.159L3.51664 10.0208C2.36358 9.3491 1.45681 8.75579 1.50159 8.67743C1.54637 8.59906 2.52032 9.08043 3.67339 9.75212L203.075 124.891C204.24 125.551 205.135 126.156 205.09 126.234Z" fill="#222D3A"/>
<path opacity="0.1613" d="M205.033 126.189C204.989 126.256 204.048 125.797 202.929 125.148L3.51569 10.0207C2.39621 9.37137 1.52302 8.78927 1.5566 8.7221C1.60138 8.65493 2.54175 9.11391 3.66123 9.76321L203.074 124.891C204.194 125.54 205.067 126.122 205.033 126.189Z" fill="#222D3A"/>
<path opacity="0.1935" d="M204.967 126.156C204.923 126.223 204.016 125.775 202.93 125.148L3.51666 10.0208C2.43077 9.39389 1.57996 8.82298 1.62474 8.75581C1.66952 8.68864 2.5763 9.13643 3.6622 9.76334L203.075 124.891C204.161 125.518 205.012 126.089 204.967 126.156Z" fill="#222D3A"/>
<path opacity="0.2258" d="M204.9 126.122C204.866 126.189 203.982 125.753 202.93 125.148L3.51662 10.0096C2.46431 9.40512 1.6471 8.85658 1.68069 8.78941C1.71427 8.72224 2.59864 9.15884 3.65095 9.76336L203.075 124.902C204.128 125.507 204.945 126.055 204.9 126.122Z" fill="#222D3A"/>
<path opacity="0.2581" d="M204.844 126.077C204.811 126.145 203.949 125.719 202.941 125.137L3.51666 10.0096C2.49793 9.42747 1.70312 8.8901 1.7479 8.83413C1.78148 8.76696 2.64346 9.19239 3.65099 9.77452L203.064 124.902C204.083 125.484 204.878 126.021 204.844 126.077Z" fill="#222D3A"/>
<path opacity="0.2903" d="M204.777 126.044C204.744 126.111 203.915 125.697 202.93 125.137L3.52833 9.99837C2.54318 9.42744 1.78194 8.92368 1.81552 8.85651C1.84911 8.78934 2.67752 9.20355 3.66266 9.76329L203.076 124.891C204.05 125.473 204.811 125.988 204.777 126.044Z" fill="#222D3A"/>
<path opacity="0.3226" d="M204.71 126.01C204.676 126.066 203.881 125.674 202.93 125.137L3.5276 9.99842C2.58723 9.44988 1.84838 8.95729 1.88196 8.90132C1.91554 8.84535 2.71037 9.2372 3.66193 9.77455L203.075 124.902C204.004 125.451 204.743 125.943 204.71 126.01Z" fill="#222D3A"/>
<path opacity="0.3548" d="M204.653 125.977C204.62 126.033 203.858 125.652 202.941 125.126L3.52734 9.99839C2.62056 9.47224 1.90407 9.00207 1.93766 8.93491C1.97124 8.87893 2.73249 9.25953 3.65046 9.78569L203.064 124.913C203.97 125.439 204.687 125.909 204.653 125.977Z" fill="#222D3A"/>
<path opacity="0.3871" d="M204.586 125.932C204.553 125.988 203.814 125.619 202.941 125.115L3.52757 9.98732C2.65438 9.48355 1.97151 9.0246 2.00509 8.96862C2.03868 8.91265 2.7775 9.28206 3.6507 9.78582L203.064 124.913C203.937 125.428 204.62 125.876 204.586 125.932Z" fill="#222D3A"/>
<path opacity="0.4194" d="M204.52 125.898C204.486 125.954 203.781 125.607 202.941 125.115L3.52829 9.98719C2.68868 9.50581 2.02819 9.06922 2.06177 9.01324C2.09536 8.95727 2.80063 9.30432 3.64025 9.79689L203.053 124.924C203.893 125.406 204.554 125.842 204.52 125.898Z" fill="#222D3A"/>
<path opacity="0.4516" d="M204.464 125.865C204.43 125.921 203.759 125.585 202.952 125.115L3.53931 9.98723C2.73329 9.51704 2.10638 9.10284 2.13996 9.04687C2.17355 8.99089 2.84521 9.32675 3.65123 9.79693L203.064 124.924C203.859 125.395 204.486 125.809 204.464 125.865Z" fill="#222D3A"/>
<path opacity="0.4839" d="M204.396 125.82C204.363 125.865 203.725 125.551 202.952 125.103L3.53906 9.97591C2.76662 9.52812 2.16209 9.12508 2.19567 9.0803C2.22925 9.03552 2.86737 9.349 3.63981 9.79679L203.053 124.924C203.825 125.372 204.419 125.775 204.396 125.82Z" fill="#222D3A"/>
<path opacity="0.5161" d="M204.329 125.786C204.307 125.831 203.68 125.529 202.953 125.103L3.53935 9.97606C2.80049 9.55066 2.22954 9.17002 2.26313 9.12524C2.28552 9.08047 2.91244 9.38274 3.6401 9.80815L203.053 124.936C203.781 125.361 204.363 125.742 204.329 125.786Z" fill="#222D3A"/>
<path opacity="0.5484" d="M204.273 125.753C204.251 125.798 203.658 125.507 202.964 125.104L3.53926 9.97608C2.83399 9.57306 2.29664 9.20362 2.31903 9.15884C2.34142 9.11406 2.93473 9.40515 3.62881 9.80816L203.042 124.936C203.747 125.339 204.296 125.708 204.273 125.753Z" fill="#222D3A"/>
<path opacity="0.5806" d="M204.205 125.719C204.183 125.764 203.623 125.484 202.963 125.103L3.54969 9.96478C2.8892 9.58415 2.36306 9.23711 2.38545 9.19233C2.40784 9.14755 2.96758 9.42744 3.63927 9.80807L203.052 124.936C203.713 125.327 204.228 125.674 204.205 125.719Z" fill="#222D3A"/>
<path opacity="0.6129" d="M204.139 125.674C204.116 125.719 203.59 125.451 202.952 125.092L3.54995 9.96484C2.92304 9.6066 2.43049 9.27077 2.45288 9.23718C2.47527 9.1924 3.00143 9.46107 3.63953 9.8193L203.053 124.947C203.668 125.305 204.161 125.641 204.139 125.674Z" fill="#222D3A"/>
<path opacity="0.6452" d="M204.072 125.641C204.05 125.674 203.546 125.428 202.953 125.092L3.55067 9.95361C2.95734 9.60657 2.48717 9.30431 2.50956 9.25953C2.53195 9.22595 3.03571 9.47226 3.62904 9.8081L203.042 124.936C203.636 125.294 204.095 125.607 204.072 125.641Z" fill="#222D3A"/>
<path opacity="0.6774" d="M204.015 125.607C203.993 125.641 203.523 125.406 202.963 125.092L3.54996 9.95351C2.99022 9.62886 2.55363 9.33781 2.57602 9.30422C2.59841 9.27064 3.06859 9.50572 3.62833 9.81917L203.042 124.947C203.601 125.282 204.038 125.574 204.015 125.607Z" fill="#222D3A"/>
<path opacity="0.7097" d="M203.948 125.562C203.926 125.596 203.489 125.383 202.963 125.081L3.55001 9.95356C3.02386 9.6513 2.62087 9.38265 2.63206 9.34906C2.65445 9.31548 3.09102 9.52818 3.61718 9.84164L203.03 124.969C203.557 125.26 203.971 125.529 203.948 125.562Z" fill="#222D3A"/>
<path opacity="0.7419" d="M203.882 125.529C203.859 125.563 203.456 125.361 202.964 125.07L3.56172 9.94252C3.06915 9.66265 2.68851 9.40516 2.7109 9.37157C2.73329 9.33799 3.13631 9.5395 3.62888 9.83056L203.042 124.958C203.523 125.249 203.904 125.495 203.882 125.529Z" fill="#222D3A"/>
<path opacity="0.7742" d="M203.826 125.495C203.803 125.529 203.423 125.339 202.975 125.07L3.56169 9.94247C3.1027 9.68499 2.75567 9.43871 2.76686 9.41632C2.78925 9.38273 3.16985 9.57305 3.61765 9.84173L203.031 124.969C203.49 125.227 203.837 125.462 203.826 125.495Z" fill="#222D3A"/>
<path opacity="0.8065" d="M203.759 125.462C203.747 125.484 203.389 125.316 202.975 125.07L3.56172 9.94239C3.14751 9.6961 2.81168 9.48337 2.83407 9.46098C2.84526 9.43859 3.20347 9.60652 3.61768 9.85281L203.031 124.98C203.445 125.215 203.77 125.428 203.759 125.462Z" fill="#222D3A"/>
<path opacity="0.8387" d="M203.691 125.417C203.68 125.439 203.355 125.283 202.975 125.059L3.56165 9.93124C3.18102 9.70734 2.87875 9.50584 2.88995 9.48345C2.90114 9.46106 3.22581 9.6178 3.60643 9.84169L203.031 124.98C203.411 125.193 203.714 125.395 203.691 125.417Z" fill="#222D3A"/>
<path opacity="0.871" d="M203.636 125.383C203.624 125.406 203.333 125.26 202.986 125.059L3.5619 9.93127C3.21486 9.72976 2.94617 9.55066 2.95737 9.52827C2.96856 9.50588 3.25965 9.65139 3.60669 9.8529L203.02 124.98C203.378 125.182 203.647 125.361 203.636 125.383Z" fill="#222D3A"/>
<path opacity="0.9032" d="M203.568 125.35C203.556 125.372 203.288 125.238 202.986 125.059L3.57237 9.93118C3.25892 9.75206 3.01261 9.58416 3.0238 9.56177C3.035 9.53938 3.30367 9.67369 3.61713 9.85281L203.019 124.98C203.333 125.159 203.579 125.327 203.568 125.35Z" fill="#222D3A"/>
<path opacity="0.9355" d="M203.501 125.316C203.49 125.339 203.254 125.215 202.975 125.059L3.57265 9.92004C3.29278 9.76331 3.08005 9.6178 3.09124 9.59541C3.10244 9.57302 3.33753 9.69614 3.6174 9.85287L203.031 124.98C203.299 125.148 203.512 125.294 203.501 125.316Z" fill="#222D3A"/>
<path opacity="0.9677" d="M203.444 125.271C203.433 125.283 203.232 125.182 202.986 125.047L3.57236 9.92C3.32608 9.77447 3.13576 9.65133 3.14695 9.64013C3.15815 9.62894 3.35966 9.7297 3.60595 9.86404L203.019 124.991C203.254 125.137 203.444 125.26 203.444 125.271Z" fill="#222D3A"/>
<path opacity="0.56" d="M203.019 124.991C203.221 125.115 203.389 125.215 203.378 125.238C203.366 125.249 203.199 125.159 202.986 125.047L3.57267 9.90873C3.35997 9.78559 3.20324 9.68484 3.21443 9.66245C3.22563 9.65125 3.39355 9.74079 3.60626 9.85274L203.019 124.991Z" fill="#222D3A"/>
</g>
</g>
</g>
</g>
<g opacity="0.74">
<g opacity="0.74">
<g opacity="0.74">
<g opacity="0.74">
<path opacity="0.0323" d="M204.877 124.723C205.022 124.723 205.134 125.439 205.134 126.313V265.52C205.134 266.404 205.022 267.121 204.877 267.121C204.731 267.121 204.619 266.404 204.619 265.52V126.324C204.619 125.439 204.731 124.723 204.877 124.723Z" fill="#222D3A"/>
<path opacity="0.0645" d="M204.876 124.768C205.01 124.768 205.122 125.462 205.122 126.324V265.531C205.122 266.393 205.01 267.087 204.876 267.087C204.742 267.087 204.63 266.393 204.63 265.531V126.324C204.63 125.462 204.742 124.768 204.876 124.768Z" fill="#222D3A"/>
<path opacity="0.0968" d="M204.876 124.812C205.011 124.812 205.112 125.484 205.112 126.324V265.531C205.112 266.36 205 267.043 204.876 267.043C204.742 267.043 204.641 266.371 204.641 265.531V126.324C204.63 125.495 204.742 124.812 204.876 124.812Z" fill="#222D3A"/>
<path opacity="0.129" d="M204.876 124.857C205.01 124.857 205.111 125.507 205.111 126.324V265.531C205.111 266.337 205.01 266.998 204.876 266.998C204.741 266.998 204.641 266.348 204.641 265.531V126.324C204.641 125.518 204.741 124.857 204.876 124.857Z" fill="#222D3A"/>
<path opacity="0.1613" d="M204.877 124.902C205 124.902 205.101 125.54 205.101 126.324V265.531C205.101 266.315 205 266.953 204.877 266.953C204.754 266.953 204.653 266.315 204.653 265.531V126.324C204.653 125.54 204.754 124.902 204.877 124.902Z" fill="#222D3A"/>
<path opacity="0.1935" d="M204.877 124.947C205 124.947 205.101 125.563 205.101 126.324V265.531C205.101 266.292 205 266.908 204.877 266.908C204.754 266.908 204.653 266.292 204.653 265.531V126.324C204.653 125.563 204.754 124.947 204.877 124.947Z" fill="#222D3A"/>
<path opacity="0.2258" d="M204.877 124.992C204.989 124.992 205.089 125.585 205.089 126.324V265.531C205.089 266.27 205 266.863 204.877 266.863C204.765 266.863 204.664 266.27 204.664 265.531V126.324C204.664 125.585 204.754 124.992 204.877 124.992Z" fill="#222D3A"/>
<path opacity="0.2581" d="M204.876 125.036C204.988 125.036 205.078 125.607 205.078 126.324V265.531C205.078 266.236 204.988 266.819 204.876 266.819C204.764 266.819 204.675 266.248 204.675 265.531V126.324C204.675 125.619 204.764 125.036 204.876 125.036Z" fill="#222D3A"/>
<path opacity="0.2903" d="M204.876 125.081C204.988 125.081 205.078 125.641 205.078 126.324V265.531C205.078 266.214 204.988 266.774 204.876 266.774C204.764 266.774 204.675 266.214 204.675 265.531V126.324C204.675 125.641 204.764 125.081 204.876 125.081Z" fill="#222D3A"/>
<path opacity="0.3226" d="M204.876 125.126C204.977 125.126 205.066 125.663 205.066 126.324V265.531C205.066 266.192 204.977 266.729 204.876 266.729C204.775 266.729 204.686 266.192 204.686 265.531V126.324C204.686 125.663 204.775 125.126 204.876 125.126Z" fill="#222D3A"/>
<path opacity="0.3548" d="M204.877 125.171C204.978 125.171 205.056 125.686 205.056 126.324V265.531C205.056 266.169 204.978 266.684 204.877 266.684C204.777 266.684 204.698 266.169 204.698 265.531V126.324C204.698 125.686 204.777 125.171 204.877 125.171Z" fill="#222D3A"/>
<path opacity="0.3871" d="M204.877 125.215C204.978 125.215 205.056 125.708 205.056 126.324V265.531C205.056 266.147 204.978 266.64 204.877 266.64C204.777 266.64 204.698 266.147 204.698 265.531V126.324C204.698 125.708 204.777 125.215 204.877 125.215Z" fill="#222D3A"/>
<path opacity="0.4194" d="M204.877 125.26C204.966 125.26 205.045 125.73 205.045 126.324V265.531C205.045 266.113 204.966 266.595 204.877 266.595C204.787 266.595 204.709 266.125 204.709 265.531V126.324C204.709 125.73 204.787 125.26 204.877 125.26Z" fill="#222D3A"/>
<path opacity="0.4516" d="M204.877 125.305C204.966 125.305 205.034 125.764 205.034 126.324V265.531C205.034 266.091 204.966 266.55 204.877 266.55C204.787 266.55 204.709 266.091 204.709 265.531V126.324C204.709 125.764 204.787 125.305 204.877 125.305Z" fill="#222D3A"/>
<path opacity="0.4839" d="M204.876 125.35C204.966 125.35 205.033 125.786 205.033 126.324V265.531C205.033 266.068 204.966 266.505 204.876 266.505C204.787 266.505 204.72 266.068 204.72 265.531V126.324C204.72 125.786 204.787 125.35 204.876 125.35Z" fill="#222D3A"/>
<path opacity="0.5161" d="M204.876 125.395C204.954 125.395 205.022 125.809 205.022 126.324V265.531C205.022 266.046 204.954 266.46 204.876 266.46C204.798 266.46 204.73 266.046 204.73 265.531V126.324C204.73 125.809 204.798 125.395 204.876 125.395Z" fill="#222D3A"/>
<path opacity="0.5484" d="M204.876 125.439C204.954 125.439 205.022 125.831 205.022 126.324V265.531C205.022 266.024 204.954 266.416 204.876 266.416C204.798 266.416 204.73 266.024 204.73 265.531V126.324C204.73 125.831 204.798 125.439 204.876 125.439Z" fill="#222D3A"/>
<path opacity="0.5806" d="M204.877 125.484C204.955 125.484 205.011 125.865 205.011 126.324V265.531C205.011 265.99 204.955 266.371 204.877 266.371C204.798 266.371 204.742 265.99 204.742 265.531V126.324C204.742 125.854 204.798 125.484 204.877 125.484Z" fill="#222D3A"/>
<path opacity="0.6129" d="M204.877 125.529C204.944 125.529 205 125.887 205 126.324V265.531C205 265.968 204.944 266.326 204.877 266.326C204.81 266.326 204.754 265.968 204.754 265.531V126.324C204.754 125.887 204.81 125.529 204.877 125.529Z" fill="#222D3A"/>
<path opacity="0.6452" d="M204.877 125.574C204.944 125.574 205 125.91 205 126.324V265.531C205 265.945 204.944 266.281 204.877 266.281C204.81 266.281 204.754 265.945 204.754 265.531V126.324C204.754 125.91 204.81 125.574 204.877 125.574Z" fill="#222D3A"/>
<path opacity="0.6774" d="M204.877 125.618C204.944 125.618 204.989 125.932 204.989 126.324V265.531C204.989 265.923 204.933 266.236 204.877 266.236C204.809 266.236 204.765 265.923 204.765 265.531V126.324C204.765 125.932 204.809 125.618 204.877 125.618Z" fill="#222D3A"/>
<path opacity="0.7097" d="M204.877 125.663C204.933 125.663 204.977 125.954 204.977 126.324V265.531C204.977 265.901 204.933 266.192 204.877 266.192C204.821 266.192 204.776 265.901 204.776 265.531V126.324C204.765 125.954 204.821 125.663 204.877 125.663Z" fill="#222D3A"/>
<path opacity="0.7419" d="M204.876 125.708C204.932 125.708 204.977 125.988 204.977 126.324V265.531C204.977 265.867 204.932 266.147 204.876 266.147C204.82 266.147 204.775 265.867 204.775 265.531V126.324C204.775 125.977 204.82 125.708 204.876 125.708Z" fill="#222D3A"/>
<path opacity="0.7742" d="M204.877 125.753C204.933 125.753 204.966 126.01 204.966 126.324V265.531C204.966 265.845 204.921 266.102 204.877 266.102C204.821 266.102 204.787 265.845 204.787 265.531V126.324C204.787 126.01 204.821 125.753 204.877 125.753Z" fill="#222D3A"/>
<path opacity="0.8065" d="M204.877 125.798C204.921 125.798 204.966 126.033 204.966 126.324V265.531C204.966 265.822 204.933 266.057 204.877 266.057C204.832 266.057 204.787 265.822 204.787 265.531V126.324C204.787 126.033 204.832 125.798 204.877 125.798Z" fill="#222D3A"/>
<path opacity="0.8387" d="M204.877 125.842C204.922 125.842 204.956 126.055 204.956 126.324V265.531C204.956 265.8 204.922 266.013 204.877 266.013C204.832 266.013 204.799 265.8 204.799 265.531V126.324C204.799 126.055 204.832 125.842 204.877 125.842Z" fill="#222D3A"/>
<path opacity="0.871" d="M204.877 125.887C204.91 125.887 204.944 126.089 204.944 126.324V265.531C204.944 265.777 204.91 265.968 204.877 265.968C204.843 265.968 204.81 265.766 204.81 265.531V126.324C204.81 126.077 204.832 125.887 204.877 125.887Z" fill="#222D3A"/>
<path opacity="0.9032" d="M204.877 125.932C204.91 125.932 204.944 126.111 204.944 126.324V265.531C204.944 265.755 204.91 265.923 204.877 265.923C204.843 265.923 204.81 265.744 204.81 265.531V126.324C204.81 126.1 204.843 125.932 204.877 125.932Z" fill="#222D3A"/>
<path opacity="0.9355" d="M204.876 125.977C204.91 125.977 204.932 126.134 204.932 126.324V265.531C204.932 265.722 204.91 265.878 204.876 265.878C204.843 265.878 204.82 265.722 204.82 265.531V126.324C204.82 126.134 204.843 125.977 204.876 125.977Z" fill="#222D3A"/>
<path opacity="0.9677" d="M204.877 126.01C204.899 126.01 204.922 126.145 204.922 126.313V265.52C204.922 265.688 204.899 265.822 204.877 265.822C204.854 265.822 204.832 265.688 204.832 265.52V126.324C204.832 126.156 204.843 126.01 204.877 126.01Z" fill="#222D3A"/>
<path opacity="0.74" d="M204.832 126.324C204.832 126.178 204.854 126.066 204.877 126.066C204.899 126.066 204.922 126.189 204.922 126.324V265.531C204.922 265.677 204.899 265.789 204.877 265.789C204.854 265.789 204.832 265.666 204.832 265.531V126.324Z" fill="#222D3A"/>
</g>
</g>
</g>
</g>
<g opacity="0.74">
<g opacity="0.74">
<g opacity="0.74">
<g opacity="0.74">
<path opacity="0.0323" d="M204.809 267.132C204.764 267.21 203.7 266.684 202.435 265.957L2.27208 150.393C1.00707 149.665 0.010727 149.004 0.0667011 148.926C0.11148 148.848 1.17498 149.374 2.44 150.102L202.592 265.666C203.868 266.393 204.853 267.043 204.809 267.132Z" fill="#222D3A"/>
<path opacity="0.0645" d="M204.743 267.087C204.698 267.166 203.657 266.651 202.426 265.945L2.28471 150.392C1.05328 149.676 0.0905106 149.038 0.13529 148.96C0.180069 148.881 1.22119 149.396 2.45262 150.101L202.605 265.665C203.836 266.371 204.799 267.009 204.743 267.087Z" fill="#222D3A"/>
<path opacity="0.0968" d="M204.686 267.054C204.641 267.132 203.634 266.628 202.436 265.945L2.284 150.381C1.08616 149.687 0.156969 149.072 0.201748 148.993C0.246527 148.915 1.25407 149.419 2.45192 150.101L202.604 265.665C203.791 266.36 204.731 266.975 204.686 267.054Z" fill="#222D3A"/>
<path opacity="0.129" d="M204.619 267.02C204.574 267.098 203.6 266.606 202.436 265.945L2.28374 150.381C1.11948 149.71 0.21267 149.105 0.257449 149.038C0.302228 148.96 1.27619 149.452 2.44045 150.113L202.592 265.677C203.757 266.337 204.664 266.942 204.619 267.02Z" fill="#222D3A"/>
<path opacity="0.1613" d="M204.552 266.986C204.507 267.054 203.567 266.595 202.436 265.945L2.28398 150.37C1.15331 149.721 0.280111 149.139 0.32489 149.06C0.369669 148.993 1.31002 149.452 2.44069 150.101L202.593 265.665C203.723 266.326 204.597 266.908 204.552 266.986Z" fill="#222D3A"/>
<path opacity="0.1935" d="M204.495 266.942C204.45 267.009 203.543 266.561 202.446 265.923L2.283 150.37C1.1971 149.743 0.346283 149.172 0.379867 149.105C0.413452 149.038 1.33141 149.486 2.4285 150.124L202.581 265.688C203.678 266.304 204.528 266.874 204.495 266.942Z" fill="#222D3A"/>
<path opacity="0.2258" d="M204.428 266.908C204.395 266.975 203.499 266.539 202.447 265.923L2.2947 150.37C1.24238 149.765 0.413985 149.217 0.458765 149.15C0.492349 149.083 1.38792 149.519 2.44023 150.135L202.592 265.699C203.645 266.292 204.462 266.841 204.428 266.908Z" fill="#222D3A"/>
<path opacity="0.2581" d="M204.361 266.874C204.327 266.942 203.465 266.516 202.447 265.923L2.29467 150.359C1.27594 149.766 0.481114 149.239 0.514698 149.172C0.548283 149.105 1.41027 149.531 2.429 150.124L202.581 265.688C203.611 266.27 204.406 266.807 204.361 266.874Z" fill="#222D3A"/>
<path opacity="0.2903" d="M204.305 266.83C204.272 266.897 203.443 266.483 202.458 265.912L2.29474 150.359C1.30959 149.788 0.537152 149.273 0.581931 149.217C0.615515 149.15 1.44392 149.564 2.42907 150.135L202.581 265.699C203.566 266.259 204.339 266.774 204.305 266.83Z" fill="#222D3A"/>
<path opacity="0.3226" d="M204.239 266.796C204.205 266.852 203.41 266.46 202.459 265.912L2.29561 150.359C1.34405 149.81 0.605212 149.318 0.638796 149.262C0.672381 149.206 1.46721 149.598 2.41877 150.146L202.582 265.699C203.534 266.247 204.272 266.74 204.239 266.796Z" fill="#222D3A"/>
<path opacity="0.3548" d="M204.171 266.763C204.137 266.819 203.365 266.438 202.458 265.912L2.2949 150.348C1.37692 149.822 0.671668 149.34 0.705253 149.284C0.738837 149.228 1.51128 149.609 2.41806 150.135L202.581 265.699C203.488 266.225 204.205 266.707 204.171 266.763Z" fill="#222D3A"/>
<path opacity="0.3871" d="M204.104 266.718C204.07 266.774 203.332 266.404 202.458 265.901L2.30636 150.348C1.42197 149.844 0.739087 149.385 0.772672 149.329C0.806256 149.273 1.54512 149.642 2.41831 150.146L202.582 265.699C203.455 266.214 204.138 266.662 204.104 266.718Z" fill="#222D3A"/>
<path opacity="0.4194" d="M204.048 266.684C204.015 266.74 203.309 266.382 202.47 265.9L2.30661 150.348C1.467 149.855 0.806509 149.418 0.840093 149.362C0.873678 149.306 1.57895 149.665 2.41857 150.146L202.571 265.71C203.421 266.192 204.082 266.628 204.048 266.684Z" fill="#222D3A"/>
<path opacity="0.4516" d="M203.981 266.651C203.947 266.707 203.276 266.371 202.458 265.901L2.30636 150.337C1.50033 149.866 0.862214 149.452 0.895799 149.396C0.929383 149.34 1.60109 149.676 2.41831 150.146L202.57 265.71C203.376 266.18 204.014 266.595 203.981 266.651Z" fill="#222D3A"/>
<path opacity="0.4839" d="M203.914 266.617C203.88 266.662 203.231 266.348 202.459 265.901L2.30664 150.337C1.5342 149.889 0.929664 149.486 0.963248 149.441C0.996833 149.396 1.64615 149.71 2.41859 150.157L202.571 265.721C203.343 266.158 203.948 266.561 203.914 266.617Z" fill="#222D3A"/>
<path opacity="0.5161" d="M203.859 266.572C203.836 266.617 203.209 266.315 202.47 265.889L2.31834 150.325C1.57948 149.9 1.00852 149.519 1.03091 149.463C1.0533 149.419 1.68023 149.721 2.41909 150.146L202.571 265.71C203.31 266.147 203.881 266.528 203.859 266.572Z" fill="#222D3A"/>
<path opacity="0.5484" d="M203.79 266.539C203.768 266.583 203.175 266.292 202.469 265.889L2.31743 150.325C1.61216 149.922 1.06358 149.553 1.09717 149.508C1.11956 149.463 1.71291 149.754 2.41818 150.157L202.57 265.721C203.264 266.124 203.813 266.494 203.79 266.539Z" fill="#222D3A"/>
<path opacity="0.5806" d="M203.723 266.505C203.701 266.55 203.141 266.27 202.469 265.889L2.31732 150.325C1.64563 149.945 1.13066 149.598 1.15305 149.553C1.17544 149.508 1.73517 149.788 2.40686 150.169L202.559 265.733C203.231 266.113 203.746 266.46 203.723 266.505Z" fill="#222D3A"/>
<path opacity="0.6129" d="M203.656 266.46C203.634 266.505 203.096 266.236 202.469 265.878L2.31744 150.314C1.69053 149.945 1.18675 149.62 1.22034 149.575C1.24273 149.531 1.78007 149.799 2.40698 150.157L202.559 265.722C203.197 266.091 203.69 266.427 203.656 266.46Z" fill="#222D3A"/>
<path opacity="0.6452" d="M203.6 266.427C203.578 266.46 203.074 266.214 202.481 265.867L2.3173 150.314C1.72398 149.967 1.25377 149.665 1.27616 149.62C1.29855 149.586 1.80231 149.833 2.39564 150.18L202.548 265.744C203.152 266.08 203.622 266.393 203.6 266.427Z" fill="#222D3A"/>
<path opacity="0.6774" d="M203.533 266.393C203.51 266.427 203.04 266.192 202.48 265.867L2.32828 150.314C1.76854 149.99 1.33195 149.699 1.35434 149.665C1.37673 149.631 1.84691 149.866 2.40665 150.191L202.559 265.755C203.118 266.069 203.555 266.36 203.533 266.393Z" fill="#222D3A"/>
<path opacity="0.7097" d="M203.466 266.36C203.444 266.393 203.007 266.169 202.481 265.867L2.32901 150.303C1.80285 150.001 1.38863 149.721 1.41102 149.687C1.43341 149.654 1.87002 149.877 2.39617 150.18L202.548 265.744C203.074 266.046 203.489 266.326 203.466 266.36Z" fill="#222D3A"/>
<path opacity="0.7419" d="M203.409 266.315C203.387 266.348 202.984 266.147 202.492 265.856L2.32828 150.303C1.83571 150.023 1.45511 149.766 1.4775 149.732C1.49989 149.698 1.90288 149.9 2.39545 150.191L202.547 265.755C203.04 266.035 203.421 266.281 203.409 266.315Z" fill="#222D3A"/>
<path opacity="0.7742" d="M203.343 266.281C203.321 266.315 202.94 266.124 202.493 265.856L2.32927 150.292C1.87028 150.023 1.52325 149.788 1.53444 149.766C1.55683 149.732 1.93747 149.922 2.38526 150.191L202.537 265.755C203.007 266.012 203.354 266.248 203.343 266.281Z" fill="#222D3A"/>
<path opacity="0.8065" d="M203.275 266.248C203.264 266.27 202.906 266.102 202.492 265.856L2.32836 150.292C1.90295 150.045 1.57831 149.833 1.6007 149.799C1.6119 149.777 1.97012 149.945 2.39552 150.191L202.548 265.755C202.962 266.001 203.298 266.214 203.275 266.248Z" fill="#222D3A"/>
<path opacity="0.8387" d="M203.22 266.203C203.208 266.225 202.884 266.068 202.492 265.845L2.33997 150.292C1.95934 150.068 1.65708 149.866 1.66827 149.844C1.67946 149.822 2.00411 149.978 2.39593 150.202L202.548 265.766C202.929 265.979 203.231 266.18 203.22 266.203Z" fill="#222D3A"/>
<path opacity="0.871" d="M203.152 266.169C203.141 266.191 202.849 266.046 202.491 265.844L2.33918 150.28C1.99214 150.079 1.71226 149.9 1.73465 149.877C1.74585 149.855 2.03691 150.001 2.39514 150.202L202.547 265.766C202.894 265.968 203.163 266.147 203.152 266.169Z" fill="#222D3A"/>
<path opacity="0.9032" d="M203.085 266.136C203.074 266.158 202.805 266.024 202.492 265.845L2.33992 150.281C2.02646 150.101 1.78019 149.934 1.79138 149.911C1.80258 149.889 2.07125 150.023 2.38471 150.202L202.537 265.766C202.85 265.945 203.096 266.113 203.085 266.136Z" fill="#222D3A"/>
<path opacity="0.9355" d="M203.018 266.091C203.007 266.113 202.772 265.99 202.492 265.833L2.34023 150.281C2.06036 150.124 1.84766 149.978 1.84766 149.956C1.85885 149.933 2.09394 150.057 2.37381 150.213L202.526 265.777C202.817 265.934 203.03 266.08 203.018 266.091Z" fill="#222D3A"/>
<path opacity="0.9677" d="M202.962 266.057C202.951 266.068 202.749 265.968 202.503 265.833L2.33994 150.269C2.09365 150.124 1.90334 150.001 1.91453 149.989C1.92573 149.978 2.12724 150.079 2.37352 150.213L202.526 265.777C202.783 265.912 202.973 266.046 202.962 266.057Z" fill="#222D3A"/>
<path opacity="0.74" d="M202.537 265.777C202.75 265.901 202.907 266.001 202.896 266.024C202.885 266.035 202.717 265.945 202.504 265.833L2.35187 150.269C2.13917 150.146 1.98242 150.045 1.98242 150.023C1.99362 150.012 2.16155 150.101 2.37425 150.213L202.537 265.777Z" fill="#222D3A"/>
</g>
</g>
</g>
</g>
<path d="M173.363 218.289L31.1553 136.198V135.145L172.456 216.733V142.232L173.363 142.747V218.289Z" fill="#FFA100"/>
<path d="M37.4242 135.167L31.1104 131.518V105.233L37.4242 108.882V135.167Z" fill="#FFA100"/>
<path d="M45.977 140.104L39.6631 136.455V99.5344L45.977 103.173V140.104Z" fill="#FFA100"/>
<path d="M54.5307 145.041L48.2168 141.403V94.5192L54.5307 98.1687V145.041Z" fill="#FFA100"/>
<path d="M63.0824 149.978L56.7686 146.34V115.353L63.0824 118.991V149.978Z" fill="#FFA100"/>
<path d="M71.6351 154.915L65.3213 151.277V115.33L71.6351 118.98V154.915Z" fill="#FFA100"/>
<path d="M80.1889 159.852L73.875 156.214V114.58L80.1889 118.23V159.852Z" fill="#FFA100"/>
<path d="M88.7416 164.8L82.4277 161.151V114.278L88.7416 117.916V164.8Z" fill="#FFA100"/>
<path d="M97.2934 169.737L90.9795 166.088V111.088L97.2934 114.737V169.737Z" fill="#FFA100"/>
<path d="M105.847 174.674L99.5332 171.024V119.495L105.847 123.133V174.674Z" fill="#FFA100"/>
<path d="M114.4 179.611L108.086 175.962V112.297L114.4 115.946V179.611Z" fill="#FFA100"/>
<path d="M122.954 184.548L116.64 180.898V109.073L122.954 112.711V184.548Z" fill="#FFA100"/>
<path d="M131.505 189.485L125.191 185.835V126.883L131.505 130.522V189.485Z" fill="#FFA100"/>
<path d="M140.058 194.422L133.744 190.772V164.487L140.058 168.136V194.422Z" fill="#FFA100"/>
<path d="M148.612 199.359L142.298 195.709V156.561L148.612 160.199V199.359Z" fill="#FFA100"/>
<path d="M157.164 204.296L150.839 200.657V150.113L157.164 153.751V204.296Z" fill="#FFA100"/>
<path d="M165.717 209.232L159.392 205.594V146.631L165.717 150.281V209.232Z" fill="#FFA100"/>
<path d="M31.9502 143.956V140.776C31.9502 139.937 32.4427 139.657 33.1816 140.071C33.9205 140.496 34.413 141.347 34.413 142.187V145.366C34.413 146.206 33.9205 146.486 33.1816 146.071C32.4315 145.657 31.9502 144.806 31.9502 143.956ZM33.6294 144.941V141.761C33.6294 141.392 33.4503 141.079 33.1704 140.922C32.8906 140.765 32.7114 140.866 32.7114 141.235V144.415C32.7114 144.784 32.8906 145.097 33.1704 145.254C33.4503 145.411 33.6294 145.299 33.6294 144.941Z" fill="#FFA100"/>
<path d="M35.7566 142.915L34.8945 142.411V141.795C35.4879 142.086 35.8349 142.019 35.9916 141.784L36.529 142.097V147.93L35.7677 147.493V142.915H35.7566Z" fill="#FFA100"/>
<path d="M40.626 148.971V145.791C40.626 144.952 41.1185 144.672 41.8574 145.086C42.5962 145.512 43.0888 146.362 43.0888 147.202V150.381C43.0888 151.221 42.5962 151.501 41.8574 151.087C41.1185 150.661 40.626 149.81 40.626 148.971ZM42.3164 149.945V146.765C42.3164 146.396 42.1372 146.083 41.8574 145.926C41.5775 145.769 41.3984 145.87 41.3984 146.239V149.419C41.3984 149.788 41.5775 150.101 41.8574 150.258C42.1372 150.415 42.3164 150.314 42.3164 149.945Z" fill="#FFA100"/>
<path d="M44.5445 151.725L46.0558 152.598V153.426L43.6377 152.027V151.266L44.7572 149.855C45.1714 149.329 45.2945 149.004 45.2945 148.557C45.2945 148.154 45.1266 147.829 44.8355 147.661C44.5445 147.493 44.3766 147.616 44.3766 148.03V148.377L43.6377 147.952V147.672C43.6377 146.721 44.0855 146.396 44.8468 146.833C45.608 147.269 46.067 148.075 46.067 148.982C46.067 149.62 45.8991 150.034 45.3841 150.684L44.5445 151.725Z" fill="#FFA100"/>
<path d="M48.4072 153.46V150.281C48.4072 149.441 48.8998 149.161 49.6387 149.575C50.3775 150.001 50.8701 150.852 50.8701 151.691V154.871C50.8701 155.71 50.3775 155.99 49.6387 155.576C48.8998 155.162 48.4072 154.311 48.4072 153.46ZM50.0977 154.445V151.266C50.0977 150.896 49.9185 150.583 49.6387 150.426C49.3588 150.269 49.1797 150.37 49.1797 150.74V153.919C49.1797 154.288 49.3588 154.602 49.6387 154.759C49.9185 154.915 50.0977 154.803 50.0977 154.445Z" fill="#FFA100"/>
<path d="M53.8369 156.035V156.572C53.8369 157.457 53.378 157.748 52.6167 157.3C51.8555 156.863 51.3965 156.046 51.3965 155.162V154.983L52.1353 155.33V155.52C52.1353 155.99 52.3032 156.281 52.6055 156.46C52.8966 156.628 53.0757 156.527 53.0757 156.147V155.542C53.0757 155.072 52.8966 154.781 52.4936 154.546L52.1913 154.367V153.538L52.4488 153.684C52.8518 153.919 53.0309 153.818 53.0309 153.348V152.9C53.0309 152.564 52.8742 152.285 52.5943 152.128C52.3256 151.971 52.1577 152.061 52.1577 152.486V152.62L51.4189 152.195V151.993C51.4189 151.154 51.8555 150.874 52.6055 151.299C53.3444 151.725 53.7922 152.52 53.7922 153.359V153.74C53.7922 154.266 53.6019 154.535 53.2548 154.546C53.6355 154.983 53.8369 155.486 53.8369 156.035Z" fill="#FFA100"/>
<path d="M57.9893 159.001V155.822C57.9893 154.982 58.4818 154.703 59.2207 155.117C59.9596 155.542 60.4521 156.393 60.4521 157.233V160.412C60.4521 161.252 59.9596 161.531 59.2207 161.117C58.4818 160.692 57.9893 159.841 57.9893 159.001ZM59.6797 159.975V156.796C59.6797 156.427 59.5006 156.113 59.2207 155.956C58.9408 155.8 58.7617 155.9 58.7617 156.27V159.449C58.7617 159.819 58.9408 160.132 59.2207 160.289C59.5006 160.445 59.6797 160.334 59.6797 159.975Z" fill="#FFA100"/>
<path d="M63.6312 162.36L63.217 162.125V163.345L62.4557 162.908V161.688L60.9668 160.826V160.031L62.3102 156.986L63.217 157.512V161.296L63.6312 161.531V162.36ZM62.4557 160.849V158.554L61.6833 160.401L62.4557 160.849Z" fill="#FFA100"/>
<path d="M65.7695 163.49V160.311C65.7695 159.472 66.2621 159.192 67.001 159.606C67.7398 160.031 68.2324 160.882 68.2324 161.722V164.901C68.2324 165.741 67.7398 166.02 67.001 165.606C66.2621 165.181 65.7695 164.33 65.7695 163.49ZM67.4599 164.464V161.285C67.4599 160.916 67.2808 160.602 67.001 160.445C66.7211 160.289 66.542 160.39 66.542 160.759V163.938C66.542 164.308 66.7211 164.621 67.001 164.778C67.2808 164.935 67.4599 164.834 67.4599 164.464Z" fill="#FFA100"/>
<path d="M68.8818 165.282V165.103L69.6207 165.45V165.64C69.6207 166.11 69.7886 166.39 70.0797 166.547C70.3596 166.715 70.5386 166.625 70.5386 166.244V164.901C70.5386 164.554 70.3819 164.296 70.1356 164.162C69.867 164.005 69.6543 164.106 69.6543 164.464V164.565L68.9154 164.14V160.804L71.0984 162.069V162.897L69.6431 162.058V163.502C69.755 163.345 70.0237 163.3 70.3707 163.502C70.9417 163.826 71.2887 164.498 71.2887 165.203V166.67C71.2887 167.554 70.8297 167.823 70.0797 167.386C69.3408 166.961 68.8818 166.166 68.8818 165.282Z" fill="#FFA100"/>
<path d="M74.457 168.506V165.326C74.457 164.487 74.9496 164.207 75.6885 164.621C76.4273 165.047 76.9199 165.897 76.9199 166.737V169.916C76.9199 170.756 76.4273 171.036 75.6885 170.622C74.9496 170.196 74.457 169.345 74.457 168.506ZM76.1475 169.48V166.3C76.1475 165.931 75.9683 165.617 75.6885 165.461C75.4086 165.304 75.2295 165.405 75.2295 165.774V168.954C75.2295 169.323 75.4086 169.636 75.6885 169.793C75.9571 169.95 76.1475 169.838 76.1475 169.48Z" fill="#FFA100"/>
<path d="M77.5918 170.319V167.118C77.5918 166.289 78.0732 165.998 78.8008 166.412C79.5173 166.826 79.9987 167.666 79.9987 168.506V168.696L79.2598 168.271V168.036C79.2598 167.722 79.0807 167.409 78.8008 167.252C78.521 167.095 78.353 167.196 78.353 167.521V168.853C78.465 168.707 78.7225 168.651 79.0919 168.864C79.674 169.2 80.0211 169.871 80.0211 170.588V171.719C80.0211 172.547 79.5285 172.838 78.812 172.424C78.0732 171.998 77.5918 171.148 77.5918 170.319ZM79.2598 171.327V170.286C79.2598 169.927 79.1031 169.67 78.8456 169.524C78.5434 169.345 78.353 169.457 78.353 169.827V170.812C78.353 171.125 78.521 171.439 78.812 171.607C79.0919 171.752 79.2598 171.64 79.2598 171.327Z" fill="#FFA100"/>
<path d="M83.1318 173.51V170.331C83.1318 169.491 83.6244 169.211 84.3633 169.625C85.1021 170.051 85.5947 170.902 85.5947 171.741V174.92C85.5947 175.76 85.1021 176.04 84.3633 175.626C83.6244 175.212 83.1318 174.361 83.1318 173.51ZM84.8223 174.495V171.316C84.8223 170.946 84.6431 170.633 84.3633 170.476C84.0834 170.319 83.9043 170.42 83.9043 170.79V173.969C83.9043 174.338 84.0834 174.652 84.3633 174.808C84.6431 174.965 84.8223 174.853 84.8223 174.495Z" fill="#FFA100"/>
<path d="M88.4042 172.055V172.816L87.1952 177.182L86.4004 176.723L87.6654 172.469L86.0869 171.562V170.711L88.4042 172.055Z" fill="#FFA100"/>
<path d="M91.8193 178.525V175.346C91.8193 174.506 92.3119 174.226 93.0508 174.641C93.7896 175.066 94.2822 175.917 94.2822 176.756V179.936C94.2822 180.775 93.7896 181.055 93.0508 180.641C92.3119 180.216 91.8193 179.365 91.8193 178.525ZM93.5098 179.499V176.32C93.5098 175.95 93.3306 175.637 93.0508 175.48C92.7709 175.323 92.5918 175.424 92.5918 175.794V178.973C92.5918 179.342 92.7709 179.656 93.0508 179.813C93.3306 179.969 93.5098 179.869 93.5098 179.499Z" fill="#FFA100"/>
<path d="M97.4275 181.201V181.738C97.4275 182.622 96.9685 182.914 96.1625 182.432C95.3453 181.962 94.8975 181.145 94.8975 180.272V179.734C94.8975 179.186 95.099 178.906 95.4572 178.917C95.1326 178.525 94.9422 178.033 94.9422 177.495V177.115C94.9422 176.275 95.3788 175.995 96.1625 176.443C96.9461 176.891 97.3827 177.674 97.3827 178.525V178.906C97.3827 179.443 97.1924 179.712 96.8678 179.734C97.226 180.137 97.4275 180.652 97.4275 181.201ZM96.6551 180.708C96.6551 180.238 96.4871 179.947 96.1513 179.745C95.8154 179.555 95.6475 179.656 95.6475 180.115V180.719C95.6475 181.1 95.8154 181.402 96.1513 181.593C96.4871 181.783 96.6551 181.682 96.6551 181.301V180.708ZM95.7035 177.988C95.7035 178.458 95.8714 178.749 96.1625 178.917C96.4424 179.085 96.6215 178.984 96.6215 178.514V178.066C96.6215 177.73 96.4647 177.45 96.1625 177.283C95.8714 177.115 95.7035 177.204 95.7035 177.54V177.988Z" fill="#FFA100"/>
<path d="M100.496 183.54V180.361C100.496 179.521 100.989 179.242 101.728 179.656C102.466 180.081 102.959 180.932 102.959 181.772V184.951C102.959 185.791 102.466 186.07 101.728 185.656C100.989 185.231 100.496 184.38 100.496 183.54ZM102.187 184.514V181.335C102.187 180.966 102.007 180.652 101.728 180.495C101.448 180.339 101.269 180.439 101.269 180.809V183.988C101.269 184.358 101.448 184.671 101.728 184.828C102.007 184.985 102.187 184.884 102.187 184.514Z" fill="#FFA100"/>
<path d="M105.937 183.484V186.686C105.937 187.515 105.456 187.806 104.728 187.391C104.012 186.977 103.53 186.138 103.53 185.298V185.108L104.269 185.533V185.768C104.269 186.082 104.448 186.395 104.728 186.552C105.008 186.709 105.176 186.597 105.176 186.283V184.951C105.064 185.097 104.806 185.152 104.437 184.94C103.855 184.604 103.508 183.932 103.508 183.216V182.085C103.508 181.257 104 180.966 104.717 181.391C105.445 181.805 105.937 182.656 105.937 183.484ZM104.258 182.477V183.518C104.258 183.876 104.415 184.134 104.672 184.279C104.974 184.458 105.165 184.346 105.165 183.977V182.992C105.165 182.678 104.986 182.365 104.706 182.197C104.437 182.052 104.258 182.164 104.258 182.477Z" fill="#FFA100"/>
<path d="M109.866 185.701L109.004 185.197V184.582C109.597 184.873 109.944 184.805 110.101 184.57L110.638 184.884V190.716L109.877 190.28V185.701H109.866Z" fill="#FFA100"/>
<path d="M111.366 189.821V186.641C111.366 185.802 111.859 185.522 112.598 185.936C113.337 186.361 113.829 187.212 113.829 188.052V191.231C113.829 192.071 113.337 192.351 112.598 191.936C111.859 191.511 111.366 190.66 111.366 189.821ZM113.057 190.795V187.615C113.057 187.246 112.878 186.932 112.598 186.776C112.318 186.619 112.139 186.72 112.139 187.089V190.268C112.139 190.638 112.318 190.951 112.598 191.108C112.878 191.265 113.057 191.153 113.057 190.795Z" fill="#FFA100"/>
<path d="M118.543 190.705L117.681 190.201V189.586C118.274 189.877 118.621 189.81 118.778 189.574L119.315 189.888V195.72L118.554 195.284V190.705H118.543Z" fill="#FFA100"/>
<path d="M120.803 192.015L119.941 191.511V190.895C120.535 191.187 120.882 191.119 121.039 190.884L121.576 191.198V197.03L120.815 196.594V192.015H120.803Z" fill="#FFA100"/>
<path d="M127.229 195.72L126.367 195.217V194.601C126.961 194.892 127.308 194.825 127.464 194.59L128.002 194.903V200.736L127.24 200.299V195.72H127.229Z" fill="#FFA100"/>
<path d="M129.524 200.792L131.035 201.665V202.493L128.617 201.094V200.333L129.737 198.922C130.151 198.396 130.274 198.071 130.274 197.623C130.274 197.22 130.106 196.896 129.815 196.728C129.524 196.56 129.356 196.683 129.356 197.097V197.444L128.617 197.019V196.739C128.617 195.788 129.065 195.463 129.826 195.899C130.587 196.336 131.046 197.142 131.046 198.049C131.046 198.687 130.879 199.101 130.364 199.75L129.524 200.792Z" fill="#FFA100"/>
<path d="M135.905 200.736L135.043 200.232V199.616C135.636 199.907 135.983 199.84 136.14 199.605L136.677 199.918V205.751L135.916 205.314V200.736H135.905Z" fill="#FFA100"/>
<path d="M139.711 205.616V206.154C139.711 207.038 139.252 207.329 138.491 206.881C137.729 206.445 137.271 205.628 137.271 204.743V204.564L138.009 204.9V205.09C138.009 205.56 138.177 205.852 138.48 206.031C138.771 206.199 138.95 206.098 138.95 205.717V205.113C138.95 204.643 138.782 204.351 138.368 204.116L138.065 203.937V203.109L138.323 203.254C138.726 203.489 138.905 203.389 138.905 202.919V202.471C138.905 202.135 138.748 201.855 138.468 201.698C138.2 201.542 138.032 201.631 138.032 202.057V202.191L137.293 201.765V201.564C137.293 200.724 137.729 200.444 138.48 200.87C139.218 201.295 139.666 202.09 139.666 202.93V203.31C139.666 203.836 139.476 204.105 139.129 204.116C139.509 204.553 139.711 205.068 139.711 205.616Z" fill="#FFA100"/>
<path d="M144.592 205.751L143.73 205.247V204.631C144.324 204.923 144.671 204.855 144.828 204.62L145.365 204.934V210.766L144.604 210.33V205.751H144.592Z" fill="#FFA100"/>
<path d="M148.6 211.416L148.186 211.18V212.401L147.424 211.964V210.744L145.936 209.882V209.087L147.279 206.042L148.186 206.568V210.352L148.6 210.587V211.416ZM147.424 209.904V207.609L146.652 209.456L147.424 209.904Z" fill="#FFA100"/>
<path d="M153.267 210.755L152.405 210.251V209.635C152.999 209.927 153.346 209.859 153.502 209.624L154.04 209.938V215.77L153.278 215.334V210.755H153.267Z" fill="#FFA100"/>
<path d="M154.756 214.864V214.684L155.495 215.02V215.211C155.495 215.681 155.663 215.961 155.954 216.117C156.234 216.285 156.413 216.196 156.413 215.815V214.472C156.413 214.125 156.256 213.867 156.01 213.733C155.741 213.576 155.528 213.677 155.528 214.035V214.136L154.789 213.71V210.374L156.972 211.639V212.468L155.517 211.628V213.072C155.629 212.916 155.898 212.871 156.245 213.072C156.816 213.397 157.163 214.069 157.163 214.774V216.24C157.163 217.125 156.704 217.394 155.954 216.957C155.215 216.532 154.756 215.737 154.756 214.864Z" fill="#FFA100"/>
<path d="M161.956 215.77L161.094 215.266V214.651C161.687 214.942 162.034 214.875 162.191 214.64L162.728 214.953V220.785L161.967 220.349V215.77H161.956Z" fill="#FFA100"/>
<path d="M163.467 219.901V216.699C163.467 215.871 163.948 215.58 164.676 215.994C165.392 216.408 165.874 217.248 165.874 218.087V218.278L165.135 217.852V217.617C165.135 217.304 164.956 216.99 164.676 216.834C164.396 216.677 164.228 216.778 164.228 217.102V218.434C164.34 218.289 164.597 218.233 164.967 218.446C165.549 218.781 165.896 219.453 165.896 220.17V221.3C165.896 222.129 165.403 222.42 164.687 222.006C163.948 221.58 163.467 220.729 163.467 219.901ZM165.135 220.908V219.867C165.135 219.509 164.978 219.252 164.721 219.106C164.418 218.927 164.228 219.039 164.228 219.408V220.393C164.228 220.707 164.396 221.02 164.687 221.188C164.967 221.334 165.135 221.222 165.135 220.908Z" fill="#FFA100"/>
<path fill-rule="evenodd" clip-rule="evenodd" d="M35.0623 51.4304C34.5361 49.1243 33.1256 47.1651 31.0881 45.8889C29.0507 44.6127 26.6438 44.1985 24.2929 44.6911L24.2033 44.7135C19.4119 45.7882 16.3894 50.49 17.4641 55.1918C17.7663 56.5128 18.3708 57.7331 19.2216 58.7742L22.4121 56.2889C21.9532 55.718 21.6285 55.0575 21.4606 54.341C20.8784 51.7662 22.5241 49.2026 25.1437 48.6093L25.1885 48.5981C26.4759 48.3182 27.7969 48.5533 28.9052 49.2474C30.0134 49.9415 30.7747 51.0162 31.0769 52.2812C31.5919 54.4194 30.7859 56.4568 29.0059 57.9905L28.2894 58.6063L29.2634 62.8603C30.3717 61.9535 31.4128 60.9907 32.3643 59.9496C34.066 58.1808 35.0287 56.2329 35.2526 54.2403C35.3422 53.3223 35.2862 52.3819 35.0623 51.4304Z" fill="#FFA100"/>
<path fill-rule="evenodd" clip-rule="evenodd" d="M38.834 66.5321C38.5429 65.2335 37.9496 64.0245 37.1212 62.9945C37.0988 62.961 37.0428 62.9274 37.0428 62.9274L33.9643 65.5134C33.9643 65.5134 34.6919 66.7 34.8487 67.3829C35.4308 69.9577 33.7851 72.5213 31.1656 73.1147L31.1208 73.1259C29.8334 73.4057 28.5124 73.1706 27.4041 72.4766C26.2958 71.7825 25.5234 70.7078 25.2323 69.4428C24.8405 67.7188 25.445 65.9164 26.7996 64.7633L28.3109 63.6103L27.3033 59.2107L23.7546 62.0542C21.482 64.1924 20.5417 67.2822 21.2358 70.2936C21.7619 72.5997 23.1724 74.5588 25.2099 75.835C27.2474 77.1112 29.6543 77.5254 32.0052 77.0328L32.0947 77.0105C36.8861 75.9358 39.9087 71.2339 38.834 66.5321Z" fill="#FFA100"/>
</svg>
