<svg width="270" height="295" viewBox="0 0 270 295" fill="none" xmlns="http://www.w3.org/2000/svg">
<path d="M141.63 237.28C139.79 237.28 138.09 236.04 137.61 234.16L123.07 178.16C122.51 175.93 123.83 173.67 126.06 173.09C128.28 172.5 130.55 173.85 131.13 176.07L145.66 232.07C146.24 234.3 144.9 236.56 142.68 237.14C142.33 237.24 141.98 237.28 141.63 237.28Z" fill="#222D3A"/>
<path d="M218.83 159.94C218.6 159.94 218.36 159.92 218.13 159.88L156.78 149.33C154.51 148.94 152.99 146.79 153.39 144.53C153.78 142.27 155.92 140.74 158.19 141.14L219.54 151.69C221.81 152.08 223.33 154.23 222.93 156.49C222.58 158.51 220.82 159.94 218.83 159.94Z" fill="#222D3A"/>
<path d="M138.68 110.42C137.88 110.42 137.07 110.19 136.35 109.7C134.44 108.41 133.95 105.82 135.24 103.92L177.96 40.81C179.25 38.91 181.83 38.41 183.73 39.7C185.64 40.99 186.13 43.58 184.85 45.47L142.13 108.58C141.33 109.78 140.02 110.42 138.68 110.42Z" fill="#222D3A"/>
<path d="M87.7301 114.96C86.7001 114.96 85.6801 114.58 84.8801 113.83L43.7601 75.25C42.0901 73.68 42.0101 71.05 43.5801 69.38C45.1701 67.7 47.7901 67.62 49.4601 69.18L90.5701 107.76C92.2501 109.33 92.3401 111.96 90.7701 113.64C89.9401 114.51 88.8401 114.96 87.7301 114.96Z" fill="#222D3A"/>
<path d="M24.2104 207.49C22.9004 207.49 21.6004 206.87 20.8004 205.72C19.4904 203.83 19.9404 201.24 21.8304 199.92L81.5404 158.08C83.4204 156.77 86.0104 157.22 87.3304 159.1C88.6404 160.99 88.1905 163.58 86.3105 164.9L26.6004 206.74C25.8704 207.24 25.0304 207.49 24.2104 207.49Z" fill="#222D3A"/>
<path d="M66.5699 61C66.5699 77.12 53.4999 90.18 37.3799 90.18C21.2699 90.18 8.20996 77.12 8.20996 61C8.20996 44.88 21.2699 31.81 37.3799 31.81C53.4999 31.81 66.5699 44.88 66.5699 61Z" fill="url(#paint0_radial_19_1228)"/>
<path d="M269.57 160C269.57 176.12 256.5 189.18 240.38 189.18C224.27 189.18 211.21 176.12 211.21 160C211.21 143.88 224.27 130.81 240.38 130.81C256.5 130.81 269.57 143.88 269.57 160Z" fill="url(#paint1_radial_19_1228)"/>
<path d="M220.62 33.75C220.62 52.38 205.51 67.49 186.88 67.49C168.24 67.49 153.13 52.39 153.13 33.75C153.13 15.11 168.24 0 186.88 0C205.52 0 220.62 15.11 220.62 33.75Z" fill="url(#paint2_radial_19_1228)"/>
<path d="M160.2 141.07C160.2 164.26 141.4 183.06 118.2 183.06C95.0002 183.06 76.2002 164.26 76.2002 141.07C76.2002 117.86 95.0002 99.07 118.2 99.07C141.4 99.07 160.2 117.86 160.2 141.07Z" fill="url(#paint3_radial_19_1228)"/>
<path d="M186.2 260.57C186.2 279.07 171.2 294.06 152.7 294.06C134.2 294.06 119.2 279.07 119.2 260.57C119.2 242.06 134.2 227.07 152.7 227.07C171.2 227.07 186.2 242.06 186.2 260.57Z" fill="url(#paint4_radial_19_1228)"/>
<path d="M44.54 204.21C44.54 216.53 34.58 226.5 22.27 226.5C9.96002 226.5 0 216.53 0 204.21C0 191.93 9.96002 181.95 22.27 181.95C34.58 181.95 44.54 191.93 44.54 204.21Z" fill="url(#paint5_radial_19_1228)"/>
<defs>
<radialGradient id="paint0_radial_19_1228" cx="0" cy="0" r="1" gradientUnits="userSpaceOnUse" gradientTransform="translate(29.0744 52.6736) scale(37.6931)">
<stop stop-color="#398AE3"/>
<stop offset="1" stop-color="#222D3A"/>
</radialGradient>
<radialGradient id="paint1_radial_19_1228" cx="0" cy="0" r="1" gradientUnits="userSpaceOnUse" gradientTransform="translate(232.074 151.674) scale(37.6931)">
<stop stop-color="#398AE3"/>
<stop offset="1" stop-color="#222D3A"/>
</radialGradient>
<radialGradient id="paint2_radial_19_1228" cx="0" cy="0" r="1" gradientUnits="userSpaceOnUse" gradientTransform="translate(179.067 23.3874) scale(40.3795)">
<stop stop-color="#398AE3"/>
<stop offset="1" stop-color="#222D3A"/>
</radialGradient>
<radialGradient id="paint3_radial_19_1228" cx="0" cy="0" r="1" gradientUnits="userSpaceOnUse" gradientTransform="translate(108.475 128.171) scale(50.2597)">
<stop stop-color="#398AE3"/>
<stop offset="1" stop-color="#222D3A"/>
</radialGradient>
<radialGradient id="paint4_radial_19_1228" cx="0" cy="0" r="1" gradientUnits="userSpaceOnUse" gradientTransform="translate(144.943 250.281) scale(40.0881)">
<stop stop-color="#398AE3"/>
<stop offset="1" stop-color="#222D3A"/>
</radialGradient>
<radialGradient id="paint5_radial_19_1228" cx="0" cy="0" r="1" gradientUnits="userSpaceOnUse" gradientTransform="translate(17.9269 199.052) scale(27.2061)">
<stop stop-color="#398AE3"/>
<stop offset="1" stop-color="#222D3A"/>
</radialGradient>
</defs>
</svg>
