<svg width="31" height="31" viewBox="0 0 31 31" fill="none" xmlns="http://www.w3.org/2000/svg">
<path fill-rule="evenodd" clip-rule="evenodd" d="M28.6767 0.00213663H2.2853C1.04644 -0.0118547 0.0150996 0.99552 0 2.23438V28.7354C0.0145455 29.9749 1.04575 30.9834 2.2853 30.9701H28.6767C29.9193 30.9858 30.9541 29.9774 30.9707 28.7354V2.23258C30.9541 0.991087 29.9179 -0.0161501 28.6767 0.000196188V0.00213663ZM26.3891 26.3888H21.8V19.2023C21.8 17.4885 21.7694 15.2825 19.4133 15.2825C17.0232 15.2825 16.6575 17.1496 16.6575 19.0775V26.3883H12.0686V11.6098H16.4739V13.6294H16.5357C17.4327 12.0958 19.1066 11.1764 20.8823 11.2423C25.5334 11.2423 26.391 14.3016 26.391 18.2816L26.3891 26.3888ZM6.89011 9.58967C5.42919 9.58967 4.22705 8.38766 4.22705 6.92674C4.22705 5.46582 5.42919 4.26368 6.89011 4.26368C8.35089 4.26368 9.5529 5.46555 9.55318 6.92619C9.55318 8.38683 8.35075 9.58953 6.89011 9.58967ZM9.18511 26.3888H4.59138V11.6098H9.18511V26.3888Z" fill="white"/>
</svg>
